<?xml version="1.0" encoding="UTF-8"?>
<svg id="flower_01" xmlns="http://www.w3.org/2000/svg" viewBox="0 0 1920 1076">
  <defs>
    <style>
      .cls-1 {
        fill: #b09c86;
      }

      .cls-2 {
        fill: #b39f86;
      }

      .cls-3 {
        fill: #cec7b9;
      }

      .cls-4 {
        fill: #e0d5c3;
      }

      .cls-5 {
        fill: #d0c7bb;
      }

      .cls-6 {
        fill: #dbd0bc;
      }

      .cls-7 {
        fill: #bbb09c;
      }

      .cls-8 {
        fill: #c0b5a4;
      }

      .cls-9 {
        fill: #b3aea3;
      }

      .cls-10 {
        fill: #c6b395;
      }

      .cls-11 {
        fill: #d6c5a9;
      }

      .cls-12 {
        fill: #a28c61;
      }

      .cls-13 {
        fill: #d9c9b2;
      }

      .cls-14 {
        fill: #cdbfad;
      }

      .cls-15 {
        fill: #c5c4b9;
      }

      .cls-16 {
        fill: #846f39;
      }

      .cls-17 {
        fill: #e3dac9;
      }

      .cls-18 {
        fill: #eae1d2;
      }

      .cls-19 {
        fill: #d0c0a9;
      }

      .cls-20 {
        fill: #895e25;
      }

      .cls-21 {
        fill: #c8bba8;
      }

      .cls-22 {
        fill: #8c7962;
      }

      .cls-23 {
        fill: #e2d7c8;
      }

      .cls-24 {
        fill: #cdc5b4;
      }

      .cls-25 {
        fill: #d9d1c6;
      }

      .cls-26 {
        fill: #ad8c5e;
      }

      .cls-27 {
        fill: #a69274;
      }

      .cls-28 {
        fill: #a58051;
      }

      .cls-29 {
        fill: #9c875b;
      }

      .cls-30 {
        fill: #d8ccb8;
      }

      .cls-31 {
        fill: #90784c;
      }

      .cls-32 {
        fill: #d8c4a2;
      }

      .cls-33 {
        fill: #f2ebda;
      }

      .cls-34 {
        fill: #e4dbc8;
      }

      .cls-35 {
        fill: #9e9c93;
      }

      .cls-36 {
        fill: #c8bca8;
      }

      .cls-37 {
        fill: #cbc3b2;
      }

      .cls-38 {
        fill: #e7dfcc;
      }

      .cls-39 {
        fill: #d9cfbf;
      }

      .cls-40 {
        fill: #e9e0cf;
      }

      .cls-41 {
        fill: #b2a494;
      }

      .cls-42 {
        fill: #dad3c8;
      }

      .cls-43 {
        fill: #cdc7ba;
      }

      .cls-44 {
        fill: #b0a99c;
      }

      .cls-45 {
        fill: #e8e2d5;
      }

      .cls-46 {
        fill: #f1ecdd;
      }

      .cls-47 {
        fill: #eeeadd;
      }

      .cls-48 {
        fill: #ccc5ba;
      }

      .cls-49 {
        fill: #9a7845;
      }

      .cls-50 {
        fill: #b4afa5;
      }

      .cls-51 {
        fill: #9d8b53;
      }

      .cls-52 {
        fill: #9a8555;
      }

      .cls-53 {
        fill: #d0c0a7;
      }

      .cls-54 {
        fill: #e1dcd0;
      }

      .cls-55 {
        fill: #b39c7a;
      }

      .cls-56 {
        fill: #e7dfd4;
      }

      .cls-57 {
        fill: #595046;
      }

      .cls-58 {
        fill: #a8936c;
      }

      .cls-59 {
        fill: #9f876a;
      }

      .cls-60 {
        fill: #b4a27d;
      }

      .cls-61 {
        fill: #c4b8a7;
      }

      .cls-62 {
        fill: #e8dfd0;
      }

      .cls-63 {
        fill: #d2caba;
      }

      .cls-64 {
        fill: #ae9a80;
      }

      .cls-65 {
        fill: #dacdbc;
      }

      .cls-66 {
        fill: #c3b49d;
      }

      .cls-67 {
        fill: #a9a99d;
      }

      .cls-68 {
        fill: #f2e8d7;
      }

      .cls-69 {
        fill: #a9a39c;
      }

      .cls-70 {
        fill: #dbd1bf;
      }

      .cls-71 {
        fill: #926427;
      }

      .cls-72 {
        fill: #a29787;
      }

      .cls-73 {
        fill: #c0bdb0;
      }

      .cls-74 {
        fill: #917d64;
      }

      .cls-75 {
        fill: #dacdb9;
      }

      .cls-76 {
        fill: #daceb9;
      }

      .cls-77 {
        fill: #e4daca;
      }

      .cls-78 {
        fill: #d6cbbb;
      }

      .cls-79 {
        fill: #c3af8d;
      }

      .cls-80 {
        fill: #f2ecdc;
      }

      .cls-81 {
        fill: #e6dece;
      }

      .cls-82 {
        fill: #d3c9b8;
      }

      .cls-83 {
        fill: #e0d6c4;
      }

      .cls-84 {
        fill: #a57f50;
      }

      .cls-85 {
        fill: #a7a297;
      }

      .cls-86 {
        fill: #715d21;
      }

      .cls-87 {
        fill: #977041;
      }

      .cls-88 {
        fill: #927b4b;
      }

      .cls-89 {
        fill: #b6b3ab;
      }

      .cls-90 {
        fill: #887239;
      }

      .cls-91 {
        fill: #bca888;
      }

      .cls-92 {
        fill: #e3dbcc;
      }

      .cls-93 {
        fill: #855b24;
      }

      .cls-94 {
        fill: #6e5220;
      }

      .cls-95 {
        fill: #b7ab90;
      }

      .cls-96 {
        fill: #e5ddca;
      }

      .cls-97 {
        fill: #a5834f;
      }

      .cls-98 {
        fill: #bfbcb0;
      }

      .cls-99 {
        fill: #e0d8cc;
      }

      .cls-100 {
        fill: #d7c2a1;
      }

      .cls-101 {
        fill: #d7cebe;
      }

      .cls-102 {
        fill: #a47f4d;
      }

      .cls-103 {
        fill: #d3c1a8;
      }

      .cls-104 {
        fill: #b1aa9e;
      }

      .cls-105 {
        fill: #b0a28c;
      }

      .cls-106 {
        fill: #927957;
      }

      .cls-107 {
        fill: #a7a399;
      }

      .cls-108 {
        fill: #b1afa5;
      }

      .cls-109 {
        fill: #c9b59a;
      }

      .cls-110 {
        fill: #e4dccb;
      }

      .cls-111 {
        fill: #cac9bd;
      }

      .cls-112 {
        fill: #c6b8a3;
      }

      .cls-113 {
        fill: #cec2ae;
      }

      .cls-114 {
        fill: #ccbda7;
      }

      .cls-115 {
        fill: #bfae93;
      }

      .cls-116 {
        fill: #8a6833;
      }

      .cls-117 {
        fill: #e1d9c7;
      }

      .cls-118 {
        fill: #dbd3c3;
      }

      .cls-119 {
        fill: #9f8d62;
      }

      .cls-120 {
        fill: #825a23;
      }

      .cls-121 {
        fill: #afa799;
      }

      .cls-122 {
        fill: #c6b59f;
      }

      .cls-123 {
        fill: #bbb09f;
      }

      .cls-124 {
        fill: #e2dbc8;
      }

      .cls-125 {
        fill: #d3cab8;
      }

      .cls-126 {
        fill: #b2ae9f;
      }

      .cls-127 {
        fill: #bcb9af;
      }

      .cls-128 {
        fill: #d0c4ae;
      }

      .cls-129 {
        fill: #b5a695;
      }

      .cls-130 {
        fill: #bbac97;
      }

      .cls-131 {
        fill: #c5b397;
      }

      .cls-132 {
        fill: #c1ad8d;
      }

      .cls-133 {
        fill: #e5dbcd;
      }

      .cls-134 {
        fill: #cabba2;
      }

      .cls-135 {
        fill: #8a7642;
      }

      .cls-136 {
        fill: #c8b38f;
      }

      .cls-137 {
        fill: #b09b7f;
      }

      .cls-138 {
        fill: #d9ccb9;
      }
    </style>
  </defs>
  <g>
    <path class="cls-113" d="M1729.36,669.63l4.1-.96c4.82,5.53,8.28,12.2,10.38,20-8.33,6.26-2.26,15.27,5.77,20.85l1.66,6.91c2.64,13.91-4.49,27.3-12.98,39.09-4.01,5.56-6.09,10.9-11.67,14.13-3.21,3.63-4.37,2.54-6.93-.73-4.07-5.19-7.69-14.8,1-16.59-2.42-3.11-4.13-8.32.24-9.29-1.3-4.37-1.06-7.46.71-9.28-8.3,1.33-18.03-7.07-12.94-15.5-5.13-6.82-7.81-10.59.24-16.42-2.71-2.37-3.74-5-3.1-7.88-2.29-5.88,2.74-17.39,10.68-17.86-2.66-8.31,9.16-13.82,12.84-6.48Z"/>
    <path class="cls-82" d="M1716.79,742.65c5.01,6.43,6.82,8.93-2.8,12.87-10.04-.84-12.84.67-8.39,4.53-.48,5.2.83,10.12,3.94,14.76l-2.87,4.96-7.36-8.15c-9.59-.46-17.01-4.96-24.31-9.24-1.51-6,3.25-5.5,8.17-4.89-11.62-9.74-11.59-14.35-10.6-27.63-4.01-18.52,11.84-12.05,22.34-5.42,9.31-6.49,24.26,8.93,21.88,18.2Z"/>
    <path class="cls-130" d="M1641.62,544.37c-4,3.29-5.96,8.61-7.55,13.91,2.79.53,6.28,1.77,8.73,1.3,4.87,2.66,3.82,4.22-1.61,3.33-.69,1.32-1.63,4.52-3.29,5.19-5.16,2.07-8.37,6.41-11.91,8.72-2.57,5.34-6.68,6.87-12.06,7.94-2.11,11.19-13.26,17.01-17.74,6.05-10.86-3.29-5.12-15.13,5.43-18.17-1.62-2.25-4.41-4.09-8.38-5.51-3.61.23-4.63-.49-2.19-3.34l8.86-6.66c1.37-1.79,3.6-2.15,6.68-1.09,1.54-8.38,7.57-11.95,18.1-10.73-.75-8.51,14.96-6.77,16.94-.94Z"/>
    <path class="cls-92" d="M1706.16,591.68c1.91,5.42,4.94,10.39,9.09,14.89,3.42,7.49,7.13,14.27,9.29,18.96-1.69,4.52-1.16,9.3,1.61,14.36l-1.37,2.51c1.08,2.43-.13,5.84-1.93,8.26,4.44,7.79-6.32,7.57-9.96-.26-4.67,2.29-13.5-6.98-8.77-10.47,3.08-.44,4.54-5.73,9.52-4.25,1.83-3.06-.92-4.82-3.29-7.11-2.18-2.11-4.17-2.23-8.19-.24.41-5.47,2.3-9.21-.1-13.2-.91-.95-4.45-2.81-3.52-4.63.47-.93,2.06-2,3.42-3.01-5.07-3.47-8.14-5.66-11.56-11.86,2.35.03,4.02,1.02,6.1-1.79-16.31-10.44-6.86-22.81-16.38-14.77,1.14-2.82.8-5.39,1.28-8.13l24.76,20.76Z"/>
    <path class="cls-8" d="M1726.61,769.65c-3.73,2.16-5.38,11.2-4.01,15.32.32,2.65-.33,3.47-1.94,2.47-1.99,1.24-4.35.54-7.08-2.11l7.74,4.75,1.34,5.4c-3.46,1.3-3.8,4.24-1.04,8.8-1.76,3.18.03,6.49,5.37,9.92-.63,8.02-4.51,15-12.31,17.93-9,3.07-24.03-3.88-13.94-11.63.77-5.45,1.1-10.7.99-15.77,6.1-8.44,6.95-15.69,4.93-24.96-.9-4.14-3.17-9.47-7.95-13.48l3.51-2.3c.69-.45-.63-3.6-1.26-3.23l-4.32,2.51-.02-10.95c.74,2.71,3.12,4.1,3.37,3.3,2.63-8.55,8.01-.05,18.89-6.42l-9.54-2.81c2.55-2.93,5.26-3.14,7.44-3.73-2.25-11.15-.63-14.12,4.85-8.88-.51,1.24-.36,2.18-.32,2.99.38,7.25,5.22-6.31,6.62-6.55.67-.11,2.02,1.18,2.81,2.17,2.5,3.14.59,6.47-.82,9.65-1.33,2.98-3.56,3.69-9.09,3.14l6.72,9.72-11.13,2.83,5.85,2.26c-1.19,4.46.8,7.99,4.33,9.69Z"/>
    <path class="cls-41" d="M1748.18,690.03c-.22,5.93.41,11.93,3.48,17.15-.27,2.54-.87,6.73-.4,9.24-.73-3.98-5.2-4.9-7.46-7.12-2.16-2.11-3.32-4.67-6.24-7.07-4.1-3.38-1.91-11.19,2.81-14.39-2.33-5.06-5.38-7.23-8.68-10.69,1.53-1.59,2.79-2.16,4.24-2.75-4.28-1.11-5.78-2.74-6.56-4.78-1.35-4.43-3.62-8.5-6.82-12.23l-.71-2.48c3.47-2.88,3.81-4.31,1.02-4.28-.45-1.2-1.32-3.68-1.1-5.1.17-1.16,1.78-2.66,3.03-3.15-1.98-4.16.57-5.24,4.42-6.73,7.67,8.9,11.56,19.4,14.18,31.73l4.81,22.64Z"/>
    <path class="cls-72" d="M1714.68,832.13c-5.11,1.92-10.91,3.19-16.04-.46-4.75-3.38-6.7-9.86-4.58-16.61,1.33-4.23,5.61-7.47,7.67-10.32.55,1.86,2.58,1.22,3.64,1.23,2.05.03,3.46-1.3,4-3.71,3.59,6.28-1.36,9.51-4.52,12.23l.34,6.88c.09,1.81-2.76,3.16-5.88,3.96,3.85,6.35,9.56,6.98,15.37,6.8Z"/>
    <path class="cls-5" d="M1727,814.2c-4.7,1.42-9.25-1.25-12.65-4.63,2.06-2.02,3.35-4.21,3.22-6.02-.12-1.66-3.06-3.28-6.5-5.96,4.49-1.92,8.48-3.45,10.25-7.51-2.62-.54-2.92-1.21-.66-2.64.17-.82,1.04-1.79,1.94-2.47,3.33,10.01,5.22,18.73,4.39,29.23Z"/>
    <path class="cls-98" d="M1666.68,754.93c5.83-1.44,10.81.33,8.31,7.46-11.04-3.93-22.77-7.7-35.02-10.04-5.93-1.14-7.97-4.77-11.18-7.87,4.91-1.17,9.14,2.98,13.53,4.12l24.36,6.33Z"/>
    <path class="cls-42" d="M1674.89,565.4c.46,9.89-7.97-2.53-16.89-1.38-4.21.55-7.51,3.12-9.04,7.01-3.36-3.08-6.03-5.07-7.77-8.13l1.61-3.33c11.07-2.14,21.29,2.8,32.09,5.83Z"/>
    <path class="cls-48" d="M1724.53,625.53l4.66,10.13c.25.78.25,4.9-.85,5.33l-3.58,1.4c-4.52-4.07-5.8-9.46-5.33-16.98l5.1.12Z"/>
    <path class="cls-57" d="M1748.18,690.03c1.2,5.64,4.17,10.73,3.48,17.15-2.02-1.35-5.64-3.27-5.17-6.2l.85-5.34c.25-1.56-2.87-3.16-5.8-4.68,2.55-.09,4.02.45,6.64-.93Z"/>
    <path class="cls-9" d="M1715.25,606.57c-3.52.72-4.19-4.4-6.27-6.47l-3.72-3.7c-1.02-1.01-.47-3.28.91-4.72,4.64,3.89,6.6,9.44,9.09,14.89Z"/>
    <path class="cls-110" d="M1704.3,647.71c8.57-.45,8.92,4.14,7.13,11.67-2.52,8.21-4.48,16.97-2.83,24.99-3.61,3.97-4.53,7.17-2.77,9.6,2.93.74,5.82,3.94,6.77,6.07,1.69,3.79-2.1,8.22-6.21,7.43l7.91,11.64c-1.23,1.93-3.58,4.31-3.51,5.69.24,4.77,10.85,3.74,10.85,8.98-2.2-.67-4.03,1.34-2.5,3.8.76,1.22,1.09,2.85.94,3.63-.31,1.54-2.36,1.2-3.29,1.45-3.8-6.99-9.06-12.95-16.18-17.11-2.26,2.59-4.05,3.2-7.08,3.06l1.31,10.14c.2,1.52,3.48,3.09,3.15,4.27-.25.9-1.94,1.8-3.12,1.25-5.51-2.53-.62-14.96-10-22.18-1.12,1.23-2.96,2.63-3.77,1.92s-1.91-3.39-6.15-2.55c3.48,7.38.7,15.57,1.29,23.02,3.99,4.43,10.79,8.96,12.37,13.95-3.49,6.17-7.98,1.01-13.62,3.97l-8.31-7.46c.92.09,2.48,1.56,4.62-.85-5.24-3.1-5.96-8.44-5.6-13.74-.4-1.17-3.62-1.7-5.74-1.06,3.2-9.05-3.2-17.71.99-18.85l4.17-1.13-10.95-12.71-6.44-2.21c1.01-4.33,2.94-6.73.53-11.62-2.93,5.34-5.63,5.88-9.36,3.28-2.14-1.49-2.8-3.72-1.25-7.27l4.41-10.11c-6.23.35-13.74-2.34-14-9.45-3.56,1.66-7.66,1.51-11.36-1.19-2.37-1.73-1.42-5.9-.24-10.45l-14.29,2.67,6.75-14.28c4.03,7.05,9.04,11.21,16.07,15.12,10.15-4.39,18.74,2.84,22.96,12.46,6.87-.08,10.18,4.76,11.01,10.67,2.22-2.33,2.11-4.2,2.96-5.79s3.29-.29,3.19,1.48c-.04.67.17,2.21,2.18,4.39l4.32-6.31c3.31,4,6.24,2.67,8.32,1.55,4.1-2.2,4.46-5.22,1.46-7.55-2.12-1.65-4.38-2.65-7.52-1.63-2.81.91-12.56-4.3-13.41-6.39-.62-1.53.32-2.34,1.25-2.59l3.66-1.01c-.34-3.38.96-6.41,2-9.97.48-1.65-4.07-3.25-4.95-.94-.48,1.27-1.13,2.8-3.23,5.88-1.12-6.35-6.52-8.57-13.32-8.25-2.05-4.88-5.31-7.07-5.46-13.81,5.96,5.93,8.66,5.44,14.22,6.33,6.09.97,12.12,7.47,17.48,10.42-2.12,3.76,1.61,5.46,3.18,3.64-1.24-4.29,1.27-5.17,2.65-5.62,2.29-.75,3.85.73,4.09,4.3,1.18-2.15,3.36-3.31,4.42-2.01.78.97,3.34,4.28,4.66,3.7,2.73-1.18,4.11-5.66,6.37-6.82,1.61-.83,4.69.41,6.81.49Z"/>
    <path class="cls-59" d="M1566.19,629.74c2.04.1,2.09.7.27,1.76-2.02,1.34-3.34,2.91-3.97,4.73,2.24,3.07.52,5.62-5.14,7.64-1.7,5.51-7.9,16.19-11.81,8.59l.42-2.2-1.7-.61c2.41-5.85,3.01-11.5,1.79-16.94,2.79-4.53,3.42-7.03,3.24-13.18-.25-8.76,2.28-18.08,1.15-28.3-3.37-.61-6.01.64-8.62,1.18-8.88-7.28,10.25-13.96,16.06-12.68,3.51,4.18,5.21,5.08,5.1,2.7l5.94-.52c-5.18-6.58,6.21-11.76,12.62-8.44-.66-3.08,7.44-4.43,9.13-3.96,5.09,1.43.44,17.46-1.89,21.04-10.46,7.86-13.78,13.24-7.34,25.08-7.36,3.51-12.44,8.22-15.24,14.13Z"/>
    <path class="cls-39" d="M1704.12,639.92c-.56,3.14,1.66,9.11,5.44,7.74,1.27-.46,3.61-4.56,5.01-2.37l2.82,4.41c1.05,1.64,2.63,3.25,4.18,3.12.72-.06,1.06-1.64,1.27-2.17,2.15-1.12,3.48-2.97,6.7-5.43,1.47,4.87-1.96,5.69-3.9,7.98-.69,1.63,2.46,5.11,4.21,6.16s4.09-.65,7.77.24c-4.43,2.82-7.47,5.34-8.26,10.04-3.78.64-7.39,1.16-10.89,2.86,2.38,1.21,5.61,2.7,5.78,4.04.54,4.32-10.12,2.14-13.68,7.12,6.08,3.49,6.53,10.07,2.71,12.64-1.21-1.59-2.59-4.58-3.98-5.34-1.02-.56-2.97,1.24-3.47,3.01-1.41-.31-4.16,1.87-4.71-1.48-1.11-6.73,5.33-8.83,3.57-10.58l-4.98-4.96c.95-1.1,5.73-3.32,5.63-4.94l-.47-7.49c3.24-6.94,5.5-12.76-.57-16.8-4.43-2.95-5.39-9.27-2.91-14.68,3.49,2.03,3.07,4.99,2.74,6.89Z"/>
    <path class="cls-1" d="M1596.19,590.8c1.82,2.44.2,4.26-1.76,6.44-1.66,5.92-5.12,10.49-10.96,14.7l5.75,6.83c-6.74-1.37-12.12,1.85-16.61,5.32-1.44,5.09-3.58,6.97-6.41,5.66-1.69-2.89.79-6.47,4.05-8.61l-2.44-5.37c4.65,2.4,8.22,1.63,9.28.31,2.45-3.07-5.33-8.02-4.15-13.78.38-1.82,4.02-3.24,4.65-5.19,1.61-5.03,3.74-7.43,8.47-8.53.65-9.45,7.6-18.19.57-17.22-1.71.24-3.48-.95-5.09,2.12-9.32-4.42,8-8.16,11.7-6.34,2.55-.69,4.17-1.54,6.89-5.16,1.88,3.3.53,3.97,1.1,4.79.52.74,4.83.36,3.95-.2-1.44-.9-.01-4.51,1.05-3.81,4.39,2.9,2.14,10.02-2.39,12.9,2.63,1.94,4.8,2.33,4.77,6.41-2.97-1.09-4.69-3.33-7.21-3.79-.71-.13-11.53,3.56-6.62,5.19.63.21,1.21.55,2.06,2.03-1.79,1.64-2.17,3.94-.64,5.33Z"/>
    <path class="cls-36" d="M1545.55,652.46c5.15.18,8.48-5.51,7.47-10.93l9.48-5.3c-2.47-4.66-.86-5.63,3.97-4.73.07-.53.02-1.27-.27-1.76,1.85-2.44,4.18-3.94,6.41-5.66-1,6.28-.94,16.95-7.38,20.67-15.81,9.15-12.99,19.44-22.59,27.74l2.92-20.04Z"/>
    <path class="cls-30" d="M1625.99,576.81c-1.26,6.46-4.16,11.34-10.12,14.6,2.18,6.44-12.06,8.84-21.44,5.84l-1.06-2.08c-.45-.88-2-1.16-4.11-1.83l6.93-2.53c3.51.46,6.38,4.06,11.23,2.86-.84-4.76,2.12-12.08,5.49-13.03,4.58-1.29,10.42-2.09,13.08-3.82Z"/>
    <path class="cls-25" d="M1720.66,787.44c-.14.66.33,1.98.66,2.64-6.33-.4-13.21-2.39-13.18-10.98,6,1.65,8.13,6.26,12.52,8.34Z"/>
    <path class="cls-1" d="M1566.46,631.5c-.31,2.35-1.99,3.62-3.97,4.73-1.48-3.07-3.72-5.21-6.56-7.9,3.14-.59,4.34-1.34,5.7-2.72.39,4.08,2.47,6.14,4.83,5.9Z"/>
    <g>
      <path class="cls-33" d="M1674.89,565.4l6.51,5.52c6.12,7.68,12.18,15.2,18.19,22.56-2.58,5.54-1.36,6.81,3.42,9.73,2.11,6.25,3.5,12.75,4.15,19.5,5.43.42,11.54,7.28,10.17,12.39-.88,3.29-10.61,9.19-13.22,4.81-2.84-2.08-2.78.52.18,7.8-1.17,3.12-2.43,4.65-5.15,3.14-3.55,7.97-9.96,8.83-19.24,2.59l-5.41,4.8c-7.55-1.67-10.56,6.34-1.58,8.08,18.82-2.4,18.97,20.31.11,17.79-7.08,4.71-17.31,3.9-20.47-4.82-6.11-3.04-11.65-7.73-16.63-14.06-6.74-3.84-29.46.15-6.69,1.03l5.06,6.49c7.68,1.33,11.27,4.47,10.77,9.43-6.01,11.2-5.14,13.9,2.61,8.09,5.12,1.38,7.01,5.25,5.67,11.59,7.29,4.55,20.03,15.38,10.54,22.74,1.76,7.48,3.91,14.84,6.44,22.07,5.35,7.15,5.6,13.8-3.64,8.23-.57,1.09-1.09,1.92-1.46,1.85-11.91-2.13-25.83-6.59-36.44-12.31-2.74-2.65-6.97-5.14-8.85-9.42-4.05-9.24-11.56-9.21-19.68-10.09-11.85-1.29-18.34-13.84-27.65-18.17-19.17-8.91-25.08-31.09-31.87-29.03-4.78,1.45-.89,13.85-9.66,16.8-.59,4.23-2.04,8.68-1.56,12.08-3.14,3.69-4.22,5.91-3.92,11.43-1.35,5.33-3.7,9.7-6.58,14.33-3.04,1.08-1.3-2.54-1.38-2.36-5.64,13.73-12.8,26.75-22.29,37.81-4.64,4.17-4.15-.71-3.22-1.25,2.42-1.43-2.74,15.38-4.93,2.45-1.81,6-7.87,4.72-11.82.77-4.41,6.04-8.86,4.62-15.04,2.47-2.39,5.72-6,8.68-11.62,4.85-4.66,9.2-10.31,12.81-16.94,10.83-1.44,3.85-3.73,6.25-6.88,7.19-4.1-3.38-8.14-3.93-12.1-1.65-4.75-2.57-9.51-3.17-14.27-1.81-3.95,8.75-13.21,4.71-15.9-3.43-7.03,2.87-11.66-1.89-10.68-8.87l-4.82-3.54c-8.22,10.02-14.33,10.98-18.34,2.88l-2.47.11c2.68,12.85-7.89,15.17-11.99,2.75-4.57.73-8.57.03-11.99-2.1-4.38-4.35-7.85-9.07-10.41-14.17-3.79,3.33-7.03,2.67-11.1.63-4.96,7.5-9.94,3.95-10.75-2.92-1.47-2.56-2.39-5.44-2.42-8.39.33-7.84,1.73-14.74,4.21-20.71.01-4.35.18-9.2,1.74-13.21-.23-1.29-.31-4.22.48-5.25,3.87-5.1,5.47-10.43,4.8-15.98,5.74-4.82,9.7-11.61,11.88-20.35l6.69-6.9c5.31-.84,8.3-3.87,8.97-9.08,8.04-3.59,14.4-9.73,19.1-18.43-1.69-5.31,3.15-14.07,9.68-12.5,5.02-7.6,8.64-8.89,16.79-3.83,6.46-.39,12.5,1.32,15.94,6.02,7.44,1.42,16.58,7.5,12.6,16.08,10.22,7.74,4.51,14.44-4.46,19.37-2.35,8.38-8.41,14.18-16.32,17.85,7.38,10.08,11.68,10.44,12.89,1.08,5.21-2.35,8.6-5.56,10.15-9.63,6.58-3.09,9.93.34,10.04,10.29,1.32-6.94,4.67-10.05,10.07-9.33-7.91-10.38,3.66-22.11,9.42-7.77,2.76-5.85,8.4-12.01,14.62-12.02,1.45-4.24,5.61-5.15,12.48-2.71,3.93-9.34,9.2-16,15.81-19.98l1.99,2.5c3.68-.89,5.55.82,7.83,3.26,1.13-1.37,10.94-12.65,11.81-12.98.8-.3,1.81-.04,2.89.38,4.11,5.02,6.15,2.9,6.13-6.37,4.41,1.57,9.76.94,13.81-1.5,7.32-4.42,11.44-7.55,12.77-15.89l2.74-1.83c-.66-3.64,1.53-6.6,6.56-8.87-5.56-.38-5.23-2.37.06-3.97,1.73-3.08,8.37-5.76,11.07-3.6,4.13,3.3.43,36.31-1.52,42.92l-5.31.99c.37,5.4.34,11.24-.09,17.54,1.67.97,1.5,1.7-.42,2.2,5.43,4.14,8.4-1.05,10.55-6.28,8.09-4.84,13.59-12.2,16.51-22.09.56-3.15,3.28-6.39,8.16-9.71-.06-5.5,7.91-16.49,13.67-17.13,2.88-2.07,7.27-2.51,13.15-1.31,2.99-1.85,4.64-3.96,4.94-6.34l13.47-12.78c-2.9-6.87,9.22-13.35,15.2-13.91,5.3.19,10.8-.08,16.5-.8,8.83,3.38,14.57,4.48,17.2,3.3Z"/>
      <path class="cls-78" d="M1474.33,787.13c1.64,1.3,2.68,3.15,3.12,5.53-5.39,6.54-11.65,13.55-18.61,18.23-3.6,4.6-6.64,9.44-9.12,14.51-.13.94-1.01,1.67-1.92,1.05-2.49,4.24-5.02,8.25-7.58,12.02-8.72,6.16-20.41,11.59-26.78,20.73l-13.15,18.86c-11.15,3-14.7,1.36-10.64-4.89-3.49-1.15-5.13-4.45-4.94-9.91-2.93-9.67-9.93-9.93-11.06.03-4.65,2.3-7.87,6.52-9.65,12.64,4.39,7.72-.76,13.61-9.11,9.59,5.22,4.41,6.22,8.12,3.02,11.14,6.87,5.2.81,11.98-5.79,5.22-5.15-6.25-12.67-11.48-17.57-19.7l-23.87-40.04-17.06-41.29c.88-2.33,2.25-3.56,4.11-3.69-7.53-9.61-5.18-21.84,7.27-11.99,6.24-3.68,12.96-1.28,20.15,7.22,1.19-3.97,2.12-4.88,5.82-6.19,5.72-2.04,19.35,8.96,22.88,14.16,6.55-7.66,12.16-5.25,16.84,7.23,5.47,2.39,10.71,5.05,15.72,7.98,1.94,13.72,4.01,14.84,6.23,3.37,4.62-.23,7.29-2.18,8.01-5.86,5.77-.47,9.5-2.61,11.17-6.42,3.63-2.21,7.1-1.37,10.41,2.52l4.53-5.45c-.6-6.05,2.41-9.42,8.73-7.84,7.2,8.74,14.23,3.21,15.81-6.73l5.72-5.63c-1.26-15.11,12.69-15.05,12.76.35,1.59-.51,3.1.57,4.54,3.25Z"/>
      <path class="cls-46" d="M1258.35,575.64c-2.66,4.57-7.04,7.41-13.14,8.54,8.36,1.37,11.05,6.01,8.78,13.99,1.36-3.14,2.81-4.14,6.48-2.82-.38-.14-.78-.48-.95-.91-1.24-2.98-4.1-5.27-8.8-5.27-1.85-4.88,10.25-2.53,10.85-1.11.82,1.95-.19,3.84-1.07,5.14.25.69.96,1.24,1.14,1.76,3.92-1.96,4.84-.04,5.73,3.62,1.49-8.07,6.85-7.61,12.86-2.81,11.6-7.67,18.93-6.84,22.01,2.5l4.47-.12c9.99-6.03,16.14-1.72,18.46,12.91,1.48,1.36,2.34,3.75.96,4.6-2.43,1.49-17.59,9.27-18.53,8.83-1.09-.51-2.86-3.61-3.44-5.19-3.43,2.32-7.52,4.04-12.29,5.14-6.92-5.58-9.27-5.12-7.03,1.36-.9,4.39-4.93,5.87-12.1,4.45,0,0-4.71,3.18-14.12,9.55,2.27,4.58,1.56,9.05-3.21,12.22-8.65,6.87-18.08,13.31-28.27,19.32l-10.4,4.1c-14,2.57-27.09,6.96-39.26,13.19-9.03.74-17.97,3.03-26.92.62-4.03-3.6,1.72-9.4,6.08-7.07-2.12-5.76,2.73-10.17,8.32-7.05,3.39-2.8,3.73-6.16,1-10.05,2.92-2.86,5.27-5.86,7.06-9.01,8.39-7.51,15.16-15.54,20.31-24.09-6.22-5.11-7.95-9.71-5.2-13.81,5.74-3.93,10.33-8.97,13.78-15.12-5.47-8.41-3.88-13.78,4.78-16.08,4.9-9.89,11.7-15.22,20.37-15.99.87-3.11,5.34-5.11,6.34-1.32,1.3-4.98,6.31-6.01,10.47-6.67l1.27-4.21c8.15-2.08,16.04-2.54,23.67-1.37,9.65-9.66,22.16,1.51,9.11,8.31-.31,5.87-1.52,9.9-7.31,6.62-3.52,1.81-8,4.04-12.27,3.27Z"/>
      <path class="cls-124" d="M1193.07,531.44c6.32-3.47,9.02-2.3,8.09,3.51,8.73,2.88,7.67,9.95-.07,13.63,1.92,6.94,4.99,13.05,9.22,18.34-.1,5.44-.65,10.57-1.66,15.39-4.9,1.42-5.55,2.99-1.95,4.69-1.3,1.67-3.73,3.96-4.3,6.39-.33,1.43,1.65,3.83,2.78,5.58-.84,10.44,11.11-7.58,12.94,4.55-1.19.66-6.64.25-6.46,3.78.17,3.23-.43,5.07-2.47,5.59-3.48.89-5.66-1.34-4.74-3.12,3.36-.27,4.24-2.19,3.55-3.28-3.8-5.94-5.14,9.81-19.05,15.46,4.26,3.59,9.54,7.54,8.65,11.63-1.4,6.43-7.73,10.31-12.11,14.21,2.05,2.56,3.63,3.57,4.09,6.69l-5.44-3.95-8.2,8.34c-.64.65.84,3.63.24,4.32-.45.52-1.96,1.36-3.83.97-4.19-.69-3.89,5.3,1.25,3.04,1.31,2-1.26,3.99-1.71,5.61-.69,2.52-5.26,3.41-6.92,2.34-4.33,3.21-8.64.43-12.93-8.36l-6.49-3.7c-11.89-11.92-.88-24.96-11.5-36.68,5.32-2.93,8.38-8.78,9.62-15.86l3.58-20.47c3.31-4.03,5.54-8.19,6.7-12.48,10.15-14.56,29.3-40.27,39.13-46.17Z"/>
      <path class="cls-81" d="M1487.21,769.06c6.59,3.62-7.92,21.85-12.88,18.07-2.18,1.08-6.63,1.16-7.76-.92-1.48-2.73-1.63-7.31-1.98-10.33-2.56-.42-4.48,2.76-3.85,4.08.43.92,1.61,3.46.74,4.78-2.09,3.17-5.4,3.55-6.86,7.11-.88,2.16-1.89,3.65,1,6.86l-17.43,8.52c-.05-3.99-1.38-5.12-3.15-6.91-1.27-1.29-3.02-.84-4.92-.75,3.24,6.66-3.17,9.52-5.46,12.41,2.55,1.81,5.91,3.47,6.66,6.05.63,2.17-.91,4.58-3.86,4.31,1.03-1.64,1.96-3.94,1.47-4.07l-3.47-.93-11.76-9.69c.52,4.32-.18,6.11-2.96,6.74-2.2.5-3.76,2.49-8.1.84.47,4.91,2.67,9.32.24,15.67l-5.89-10.92c-4.47,5.2-3.96,16.75,2.7,19.34.95.37,4.45-1.6,5.07-.9.46.53.72,1.72.32,2.59-.26.58-1.39,1.89-2.66,2.09-6.68,1.07-9.35-6.64-13.46-10.43-9.73-8.97-1.25-12.6-7.73-16.21-1.22-.68-2.97.95-5.01,2.3-2.55-2.8-1.22-5.75-2.82-6.13-3.8-.91-8.39,3.95-12.23.81-1.88-1.54.09-2.89,1.37-2.95.81-.04,2.11-.1,5.43-2.35l-6.82-3.98c5.7-2.41,1.13-5.95-2.19-3.32-4.92,5.78-3.04,12.86-2.66,20.84-11.03-6.14,2-22.94-13.4-22.22l.25-6.61c-5.23-.19-8.95-1-13.51-3.62.03,2.89,1.22,4.25.82,5.33s-1.62,2.04-3.03,3.25c2.09.72,4.3,1.14,5.18,1.92.59.51.5,3.17-.17,4.65-3.93-1.58-6.37-4.29-11.73-4.56.41,3.15,2.83,4.04,3.8,5.51-1.72,1.75-2.29,3.39-1.83,4.08l1.9,2.84c-3.9,2.42-5.89,5.83-6.22,11.94l-7.29-7.66c1.72-1.34,3.02-2.99,2.35-3.9l-3.83-5.2c-2.79-3.79,2.13-7.14,4.52-8.88,3.39-2.48,6.31-1.21,11.44-.45l-15.03-12.43c-2.77,3.63-5.58,3.99-7.18,3.77s-4.07-4.95-5.91-5.04c-2.95,5.15,5.02,9.68,6.42,12.62-1.81,4.01-7.61,5.51-10.23,3.8l-3.78-12.99c-2-6.85-2.34-12.11,1.42-17.87-1.43-1.35-2.68-3.02-2.99-4.17-.25-.94.72-2.34,1.8-2.78l5.21,4.43c1.03-2.88,1.11-4.14,1.35-7.6l11.98,4.65c-.05-4.78-4.07-4.13-6.25-3.43.2-3.41,2.03-1.92,2.76-2.28s1.44-2.41,1.99-4.3l6.89,8.51c1.2-2.82.27-4.26-2.06-7.2,4.53-.53,8.05,2.15,8.63,6.22-4.37-1.34-3.76.67-4.26,2.64-.42,1.65,1.43,5.35,3.14,5.24,1.72-.12,3.42-2.85,5.03-3.47,2.3-.89,3.65,2.25,2.37,2.98-.95.54-3.68,3.63-3.44,4.74.78,3.64,7.73,5.19,11.44,1,4.08,3.56,3.23,7.54,7.29,12.13,2.4-6.63-5-20.54.56-19.56,2.09.37,7.53,13.12,8.24,5.27.09-.95.37-1.69-1.09-4.64,2.07-1.33,3.36.76,4.67,1.67,3.04,2.12-.42,4.18-1.3,5.51-1.94,2.96.61,4.28,3.15,4.98,1.61.44,2.94-2.62,3.84-4.91,4.82-3.25,8.08-5.22,11.22-11.27,3.26,3.63-.03,6.2-.72,8.89l5.46,4.1-.17,5.65c-.08,2.55,5.2,3.4,5.99.1.5-2.07-.19-5.46-.36-7.27,10.25-.76-1.32,16.66,12.77,16.98.05-9.32,7.67-.74,12.61-11.15.94-1.99,4.41-2.36,5.21,1.02-.46.7-2.46,1.83-3.42,2.78-1.44,1.43,1.3,4.97,2.99,4.17,3.02-1.42,5.2-2.23,7.86-1.65,1.89.41,3.75,2.18,4.67,4.68l7.68-13.4,4.6,7.36c5.13-7.48,8.47-10.43,9.87-17.16,2.74,2.4,3.97,4.56,7.89,6.19l7.97-18.33c-3.53-1.76-6.45-.92-10.22-5.24,7.52-2.63,9.49.88,13.15,6.66,1.83,2.9,6.46,5.26,2.01,9.13-1.71-1.88-3.22-2.56-4.12-2.24-1.03.36-1.55,2.29-1.06,3.01,1.51,2.23,9.03,1.06,7.88,2.18.81-.79.36-4.43.24-5.56-.41-3.89,3.91-3.83,5.49-2.35,1.01.95,1.62,2.95,3.28,4.82,2.14,2.39,6,.34,8.22,1.37Z"/>
      <path class="cls-75" d="M1381.4,587.57c1.81-6.3,5.38-5.71,6.51.64,2.77-.47,10.21-.62,12.36.7,5.39,3.31-7.28,18.83-14.12,16.06-2.92-1.18-8.17-5.61-4.28-6.73-2.65,4.69,11.29,13.48,12.11,12.95.17-2.11.42-4.91,1.79-6.38.81-.87,20.75-8.82,21.94-8.87.95-.04,1.93.52,2.91,1.25,1.55-3.18,3.75-2.27,6.61,2.74,11.32-3.04,15.11,2.12,12.93,12.98,4.86,3.88,9.62,8.02,14.29,12.43,6.35-1.04,12.41-1.79,18.18-2.25l4.07,2.39c9.82,1.71,5.95,8.46-1.65,9.17-7.43,8.31-15.63,16.05-24.59,23.2-6.43,5.12-10.41,5.41-11.98-3.83-8.91,16.34-18.73-4.41-18.58-15.06-5.08-.35-9.07-1.8-11.98-4.34l-6.52.53c-4.25-4.17-7.32-5.9-9.21-5.2,2.04,4.4,0,6.74-4.26,4.49-6.52-5.17-15.45,2.9-24.13-6.33l-7.66,9.66-5.41-2.96c1.12,4.48-1.47,7.76-5.2,9.93-2.48,2.8-5.06,1.84-7.76-2.86-4.89,2.02-9.18,1.39-11.94-3.38-2.85,4.26-5.86,4.94-7.99.07-2.71-1.4-5.25-3.43-7.61-6.09,5.05,7.51-.25,12.54-8.23,8.99-3.52,5.65-14.87,10.43-21.35,8.58-3.96.44-7.61,1.75-10.96,3.92l-6.66.36c-2.37-.89-4.9-1.66-7.61-2.3-2.23-4.91,1.2-8.68,3.21-12.22,2.19.89,3.6-.45,4.23-4,4.13-.65,8.06-2.7,11.8-6.16,11.14-.16,21.48-2.13,29.51-10.34,4.8,3.26,9.42-1.58,13.43-5,1.9-1.62,7.22-1.37,7.59-3.24-4.58-3.25-2.8-6.75,5.33-10.48,2.05-2.01,1.84-3.1-.77-4.14-4.59,4.59-20.18-10.1-20.13-13.63.09-6.83,14.17-9.33,16.65-1.61.37-12.8,8.49-13.78,24.35-2.95,6.02,14.68,11.33,17.37,15.95,8.08,5.02.59,9.97,1,14.85,1.22Z"/>
      <path class="cls-112" d="M1345.04,542.62l2.47,1.21c1.18,11.7,4.62,22.47,10.31,32.3,1.47,4.22,1.42,7.73-.14,10.53,3.25.12,6.17-.89,8.77-3.02,3.34-6.4,19.97-4.65,14.95,3.94l-10.58,6.88-2.05-5.25c-.6-1.53-2.37-1.43-2.76-.11-.21.7-.21,2.96-1.61,3.58-5.24,2.36-12.53-.35-16.75-3.6,2.12-1.77,4.15-2.94,4.59-4.1.98-2.58-20.48-10.7-19.46-11.22-2.3,1.16-4.27,5.46-1.91,9.32-1.37-.33-3.15-1.07-4.6-1.86-1.79-2.53-4.47-4.17-8.02-4.91-6.56,3.63-16.46,7.28-13.29-3.62-4.15-.45-7.47.89-9.98,4-7.25,3.7-16.86-7.74-15.52-12.24,1.26-4.24,6.16-9.09,9.13-4.86,2.19,3.11-.76,4.19-3.2-.23-1.48-3.72-5.01-10.54-7.98-14.24-7.5-9.37-7.27-12.52,6.07-13.54,3.83-5.27,7.23-10.55,10.2-15.82-.99-7.27-4.43-9.93-10.31-7.96-3.66-4.25-6.57-4.26-8.72-.04-2.91,15.28-10.57,6.4-16.16-1.87-7.4,0-10.66-4.66-4.21-8.81,6.51-1.77,12.46-6.34,20.83-6.97,6.77-.51,13.21-4.2,19.17-6.31.78,7.59,9.77,12.52,13.71,19.16,4.55,7.68,18.28,22.99,16.88,22.27,2.56,1.32,5.89.93,9.14-1.93,1.63,2.12-.05,4.13-1.35,4.89s-4.67-1.56-6.59,2.7l22.44,3.93c-2.77,1.79-4.68,2.75-5.27,4.08-.49,1.09,1.23,3.04,1.8,3.75Z"/>
      <path class="cls-128" d="M1254.27,497.07c.08.83.04,3.2.28,4.23.22.96,2.29.83,3.81-.3,9.5,4.43,8.34,15.96,11.8,10.27.72-1.19.58-2.67-.03-4.28,2.19-3.7,5.62-6.2,9.07-9.64,2.3,3.33,3.89,6.11,5.5,6.7,2.31.84,6.53-2.18,5.99-4.76-.66-1.84-.32-2.2.11-2.77,4.07-5.49,3.33,9.13,6.08,18.77,4.82-5.03,10.16-5.03,13.99-.67-3.26,2-4.88.44-6.86-1.99l-1.49,11.11c-2.08-2.51-4.51-4.13-6.23-3.51-1.33.48-4.53.94-3.47,5.28l19.52-1.71c-2.34,4.31-.58,7.9,1.58,11.43-5.58-.99-7.58.09-9.08-.75-2.14-1.2-2.36-6.12,2.13-7.55-.96-2.62-4-1.74-5.43-.93-1.12.63-.2,3.56-4.64,4.88,2.04,1.37,2.93,2.03,4.59,2.88,2.23,1.15-1.48,5.73-3.02,3.38l-3.57-5.45c-.79-1.21-4.42-3.24-6.12-.61-2.25,3.49,2.97,6.38,4.72,8.75-6.3-2.83-11.76-7.17-19.18-1.32,10.58,2.35,8.28,16.28,18.53,17.22-1.42,2.5-3.44,3.47-3.97,4.21-.56.79,1.93,2.37,1.53,3.38.16,4.72-4.38,4.23-3.96-.1-1.84-4.17-5.86.52-1.46,2.3.35,4.54,2.4,9.53,7.38,9.56l5.41-4.54c1.71-1.44,5.78-.73,7.13,2.14,1.68,3.74-3.77,8.89-7.03,9.97-4.56,1.5-18.97-.39-24.23-1.1-9.65,7.8-25.8,3.92-15.32-5.91,2.88-5.84,10.37-7.48,15.94-4.76-.99-2.65-1.02-5.38-.32-7.18.59-1.52,2.54-2.37,6.76-2.05.59-2.46-3.64-4.67-5.59-4.04-1.74.56-3.31,3.1-3.11,5.41-3.87-1.12-5.24-1.78-7.92-3.58-2.6,4.62-6.58.89-9.05,1.06-4.14.29-8.06,2.83-11.19,2.53-3.56,2.05-7.05,4.27-10.47,6.67-1.73-.23-4.37.92-6.34,1.32-6.77.09-5.84-5.22-.38-8.18-2.81-12.2-.49-17.77,6.94-16.69l4.7-4.42c-1.63-9.37,3.7-13.94,9.85-5.87,7.72-8.22,3.65-16.97-6.37-13.27-8.47-.02-12.19-8.72-5.27-13.73,5.96-3.37,10.32-9.78,17.73-11.78Z"/>
      <path class="cls-6" d="M1236.54,508.85c-.54,5.69,2.85,12.13,3.98,10.54l2.3-3.26c5.05.31,11.43,5.06,14.93,8.21-1.4,6.13-4.21,11.8-8.23,16.61-2.41,1.34-6.55-3.67-6.47-7.04-2.27,3.15-.04,5.44.18,7.49s-3.03,4.06-5.06,5.59c-2.49,1.87-1.31,5.01-.63,7.87-2.82-1.38-3.53-2.52-5.34-4.03-1.69-1.4-5.06-.49-3.89,1.83,4.63,3.72,2.19,10.01,2.25,13.94-.75.32-3.51-.08-4.29.97-.68.92.17,2.77.82,3.44,1.49,5.63-6.99,4.38-8.78,6.42-3.23,3.96-4.74,11.78-11.6,9.56-1.94.29-3.17.54-4.34,1.4-2.04,1.51-5.91-.69-5.46-3.44,1.82-1.95,5.66-4.38,10.49-6.07-.87-1.81-2.39-3.18-6.38-6.26,2.21-1.5,4.49-1.62,6.68-2.45-3.49-4.71-4.7-6.64-10.76-7.96l4.24-2.98c-1.52-5.15-3.35-8.59-6.86-13.22,4.83-1.72,7.74-1.88,10.3-5.32-2.97-1.12-5.44-1.75-6.88-3.28-.95-1.01-.92-3.16-.25-6.8l-4.42.82c4.68-2.81,11.58-4.54,16.39-7.9,8.91-6.22,18.33-9.75,27.08-14.68Z"/>
      <path class="cls-40" d="M1345.52,644.74c5.39,6.53-4.14,6.06-3.83,17.8-2.39-.88-4.26-1.58-5.91-.82.43,2.16.91,3.22,1.09,3.9.35,1.35-1.88,2.46-2.32,1.81-.79-1.15-1.33-2.42-2.57-4.71-3.15,2.78-4.11,7.94-3.67,12.56-6.92-2.86-9.68,1.14-13.02,4.88-8.39,9.43-.93,16.24-13.49,20.57,2.82,6.51,11.45,5.53,18.66,15.5-.13,2.72-2.14,6.17-4.18,2.7-2.16.78-4.06,1.63-5.44.81-1.56-.93-4.35-2.39-5.47-5.11l6.92-2.89c-4.84.9-5.63-2.75-6.86-3.31-5.8-2.64-4.55,8.73-11.34,7.03,1.36-1.78-1.96-12.43,5.81-27.36,6.57-12.64,10.75-24.71,13.05-37.54-5.46-3.51.74-9.72,4.89-12.01,4.45.99,6.32-5.03,5.14-9.34-.29-1.07,3.54-1.91,4.08-.29,1.76,5.32,1.96,10.1,5.99,10.08,1.34,0,2.43-1.05,4.89-3.48l7.59,9.2Z"/>
      <path class="cls-123" d="M1317.84,638.56c2.23,5.2-4.28,8.62-4.89,12.01-6.35-6.45-15.77,7.54-43.26,3.4,1.37-2.83,1.07-6.12-.64-8.62l8.71,1.53c.85.12,2.22-1.87,3.06-1.7.96.19,2.53,1.23,4.15,3.72,2.38-4.54,6.57-5.98,12.02-5-.49-3.49.66-5.18,3.77-6.29,2.43-.87,4.63.7,7.49,2.18.69-4.61-2.96-5.72-3.25-6.98s2.48-4.27,4.48-4.44c5.05-.42,8.94,5.46,8.36,10.19Z"/>
      <path class="cls-105" d="M1378.75,892.16c-5.61,4.45-10.98,15.38-7.95,20.37l-1.92,4.54c-.01,1.19.38,3.11-.97,3.93l-15.78-19.13c1.82.55,3.32.98,4.32-.61.66-1.04,1.25-3.29,1.47-4.61.14-5.13,3.92-10.82,7.94-14.11-5.57-5.54,3.14-25.25,11.89-17.45,6.66,5.94,6.5,22.6,1.01,27.06Z"/>
      <path class="cls-54" d="M1400.28,878.05l-8.29,12.07c-4.71,6.86-8.7,12.59-15.09,16.81-6.18-.99-4.18-12.46,1.86-12.68l2.98-4.91c-1.08-14.52,1.55-19.91,7.91-16.17l3.33,4.41c.39-2.37,1.11-5.19,2.11-5.75s3.68.14,4.21,1.14c.64,1.19.71,3.49.98,5.1Z"/>
      <path class="cls-22" d="M1378.75,892.16c1.31.61,1.29,1.3.01,2.08l-1.86,12.68-8.03,10.15-6.56-9.5c2.23-.44,4.99-1.64,5.63-2.38.84-.97-.93-3.25-2.85-4.08,3.58-3.11,5.23-5.73,7.74-9.53,1.16-1.75,4.89-.52,5.9.58Z"/>
      <path class="cls-50" d="M1519.03,732.41c-1.56,2.51-4.14,7.52-5.18,10.87-3.64,11.77-10.82,18.32-17.71,26.69-1.93.02-2.16-.69-.78-2.11.63-8.57,8.39-14.43,12.3-21.89l8.9-17c1.06-.79,2.06-.56,2.16-.02.18,1-.07,3.06.3,3.46Z"/>
      <path class="cls-108" d="M1216.74,675.46c-12.88,5.08-25.4,12.06-39.26,13.19-1.23-11.35,18.55-8.17,23.59-10.31,5.26-2.24,10.24-6.82,15.67-2.88Z"/>
      <path class="cls-73" d="M1263.03,654.33c-5.23.28-10.25.9-12.5,7.12-9.18,1.65-15.87,6.94-23.38,9.9-.63-6.07,8.22-2.09,17.45-16.15,2.1-3.2,8.09-2.59,10.82-3.18l4.45-.95c2.12-.45,3.33,1.31,3.16,3.25Z"/>
      <path class="cls-127" d="M1495.36,767.86l.78,2.11-18.69,22.69-3.41.24c-1.66.38-4.07-1.45-2.43-2.91.82-.73,2.3-.69,2.72-2.86,7.27-3.61,11.53-10.22,12.88-18.07,2.72,2.92,5.98.81,2.37-2.81,1.7-2.05,4.59-.4,5.78,1.61Z"/>
      <path class="cls-121" d="M1164.96,675.15l-8.32,7.05c-5.09,2.84-6.36.25-2.52-3.98,1.33-6.51-4.27-10.81-8.58-15.13,7.98-2.39,9.6,7.39,19.42,12.06Z"/>
      <path class="cls-69" d="M1156.64,682.2l-6.08,7.07c-.85,1.91-1.86,3.64-3.66,4.87-2.65-4.3-2.33-7.18-.5-10.78,1.39-2.75,4.3-4.59,7.72-5.13l2.52,3.98Z"/>
      <path class="cls-89" d="M1287.66,754.64l-.17-14.56c-.05-4.09,2.1-5.06,4.38-6.15-2.08,8.6-.21,16.97-4.21,20.71Z"/>
      <path class="cls-15" d="M1291.87,733.93c-3.47-4.15-3.06-10.45,1.74-13.21,2.24,3.58,2.4,10.54-1.74,13.21Z"/>
      <path class="cls-67" d="M1147.24,590.09c1.09-6.24,3.98-8.58,6.7-12.48,2.19.65,4.36,2.96,3.4,3.72-5.2,2.18-6.34,6.69-10.1,8.76Z"/>
      <path class="cls-107" d="M1449.72,825.4c-3.07-2.31,2.78-10.25,9.12-14.51-.25,6.14-4.91,10.61-9.12,14.51Z"/>
      <path class="cls-85" d="M1447.8,826.45c.48,7.1-3.41,9.07-7.58,12.02-2.36.22-3.5-2.09-1.33-2.89l8.91-9.13Z"/>
      <path class="cls-111" d="M1529.52,706.65c.7,4.93-3.04,7.93-3.92,11.43-1.3-2.43-2.22-4.92-2-7.9.16-2.13,3.07-3.78,5.92-3.53Z"/>
      <path class="cls-38" d="M1475.04,634.66c6.08-7.31,11.7,5.99,2.18,5.51-.68-.05-2.5.22-3.17,1.33l-12.54,20.76c-2.88,1.22-8.4-1.48-11-3.3-2.67,5.04-5.68,6-9.51,8.25-2.19,2.02-6.15,7.53-6.03,11.22-2.09,2.54-4.51.35-5.7-1.8-1.34-2.43-1.45-3.79-2.5-8.67-2.53,2.71-3.43,6.2-1.66,8.36,2.12,2.59,4.04,4.56,8.51,6.37-4.92,3.38-10.18,2.18-16.26,1.09.72,2.37,3.36,4.12,3.3,5.42s-4.81,2.51-5.21,3.75c-.45,1.38,1.44,4.53,2.45,5.3,1.31,1.01-1.49,4.52-2.48,3.74-6.56-5.2-7.32-13.42-7.62-21.19-4.91,1.36-1.94,5.52-2.92,6.63-1.63,1.85-13.65,1.9-8.52,4.87.99.57,2.19,1.14,3.56,3.34-5.26.12-8.65,1.71-12.56,7.95-4.22-7.01-8.61-10.8-14.3-16.71l15.32-9.2-2.74-6.05c3.25,1.3,7.16.23,7.46-2.49-3.31-.25-5.6-2.95-4.67-3.81.7-.65,2.96-3.01,4.07-3.27,2.8,1.29,5.01,2.11,6.67.97,3.54-2.41,3.43-4.68,1.26-7.45-1.57-2.01-3.54-1.58-7.89-1.3,1.4-3.41,4.38-4.74,5.07-7.12,1.67-5.79-11.61-7.04-9.68-12.75,6.95-4.52-7.71-2.71-6.8-7.39.18-.91,2-1.96,3-1.82.92.12,1.72.58,3.37,2.43,3.59-1.66,5.9-3.57,9.78-3.44.77,3.19,3.02,7.5,7.04,7.16,1.6-.14,4.52-2.19,6.11-.7,1.45,1.36,2.39,3.24,3.65,5.1.97-1.89,2.64-3.77,3.5-3.51.99.3,1.81,3.21,2.33,3.78,8.38-10.15-.12,6.22,8.28,15.7.04,1.65.3,5.57,3.28,4.37,1.28-.52,4.46-1.6,3.19-3.39-.56-.8-3.16-2.33-2.49-4.57.58-1.93,5.21-3.41,4.59-5.7l8.49,7.26c-1.71,1.32-3.08,2.98-2.95,3.98s.95,2.99,2.77,5.54c2.35-5.72,6.07-9.34,13.02-11.49l-1.94-7.77c9.19,5.35,10.09-7.03,18.87-5.32Z"/>
      <path class="cls-134" d="M1541.76,596.38c-2.06,3.04-3.6,6.44-6.56,8.87-3,7.2-9.13,13.6-18.39,19.21-6.18.04-11.03,2.04-14.56,5.98l-4.91.98c-8.2,13.07-18.92,3.52-15.74-7.11-7.63.91-9.06-3.01-2.1-5.58-1.58-3.68,2.32-5.03,5.67-5.88,3.96-3.17,9.22-4.3,15.78-3.38,1.33-2.45,4.44-2.96,9.32-1.53-8.07-5.05,4.3-9.14,4.26-.34,1.46-2.92,2.86-5.31,4.19-7.17l4.25,2.38c4.64,9.18,8.34-6.13,18.8-6.42Z"/>
      <path class="cls-96" d="M1535.2,605.25c-2.72,4.9,1.7,9.35-2.87,13.91-1.13,1.13-4.54.92-6.33,1.41-3.6,5.85-10.04,8.89-17.99,5.21,2.3,6.52,1.22,9.32-2.06,11.25-2.81,1.66-5.75.37-8.4-4.01-1.37,7.26-11.28,6.8-8.13,16.95-5.68-1.27-10.47-5.51-12.21-9.79.44-1,1.85-2.71.91-4.08-.69-1.01-2.55-1.03-3.09-1.44-.65-2,.89-5.36,5.63-5.79-1.64-.82-2.97-2.03-3.98-3.37-.35-6.17,1.21-5.43,4.91-1.19l7.19,10.8,4.82-2.04c.65-.28.25-2.5-.63-2.51l-4.17-.04c2.6-3.02,5.19-4.48,3.54-10.07,5.3,1.73,3.41,4.82,3.74,5.87.42,1.32,2.93,2.03,4.8,0l3.33-3.62c.83-.91,3.18,1.02,4.61,1.93,19.77-5.28,20.69-23.93,26.38-19.35Z"/>
      <path class="cls-36" d="M1545.97,650.26c-.81.95-4.62-1.27-3.95-2.08,3.83-4.66,1.74-11.73,4.04-15.46.83-.75,2.24.04,2.56,1.16.34,1.18.85,2.99.43,4.62l-3.08,11.77Z"/>
      <path class="cls-21" d="M1389.65,873.16c-7.35,1.61-3.09,18.5-10.89,21.09v-2.08c1.22-.44,2.22-1.87,2.01-2.93-.2-.99-1.16-2.19-1.77-2.76-2.67-2.48,1.16-4.43,1.45-5.62-.63-4.93-4.41-12.87-9.08-16.1.04,6.04-1.92,9.88-6.24,11.63.42,1.17,1.89,2.91,2.54,2.75s1.44-2.03,2.2-3.83c1.64,1.81,1.56,5.97.52,8.46-.64,1.55-3.88,3.13-5.44,4.53-.62,4.61-3.09,7.74-7.06,8.37-2.01-3.28-3.68-7.38-8.77-7.73-.72-3.18-2.7-6.15-2.54-9.95,3.1,1.06,4.43,4.03,5.41,3.52.74-.38,2.59-2.27,3.78-1.74,1.09.48,3.43,3.52,5.02,2.33,3.84-2.88-4.56-15.92,9.83-21.06-.96-1.96-3.63-5.43-3.14-9.43.58,1.2,2.78,3.71,3.35,2.85l3.01-4.53c.5-.76,3.41,2.1,4.51,2.23s3.14-1.38,4.63-2.1c5.55,6.15,7.13,14.81,6.64,22.14Z"/>
      <path class="cls-117" d="M1326.25,581.22c-2.37-1.29-4-3.3-6.87-1.89-2.44,1.2-5.69-.51-6.15,4.96,6.56,1.82,9.47,5.97,11.01,10.49l4.47-3.76,10.84,6.37c-3.19,1.07-4.91,5.78-7.39,7.15-2.95,1.63-6.23,2.71-6.99,6.53-5.51-.64-6.87-6.32-8.43-13.49-5.44,5.29-16.01,6.86-19.31,2.44-.67-.94.08-5.37-2.28-5.82-.99-.19-2.88.26-2.28,2.17.2.64,1.02,2.73-1.34,3.08-1.27.19-2.84-5.34-3.74-4.05l-3,4.31c3.8.77,7.28,2.16,6.3,7.17-.45,2.31.03,7.08-6.87,4.74-.12-3.79.81-8.04-1.06-13.84-1.56,2.19-2.43,3.85-5.06,4.6-1.68-3.8-3.36-6.02-6.66-7.43,1.04,2.86.37,4.35-.79,6.34-1.36,2.33-5.03,4.71-6.35,1.04l-2.65-7.36-1.17.39c-1.27,1.62-2.3,5.1-4.72,6.87-2.4,1.76-5.6-.94-5.96-3.88-.26-2.05.2-3.52,1.77-5.88-2.05-2.94-4.4-3.79-6.57-4.17-2.51-.44-4.58,1.05-4.32,5.06-1.37,2-8.23-.54-8.29-5.19-.07-5.1,7.78-8.73,12.73-7.56.4-1.45,1.12-3.98,1.95-3.93.96.06,2.69,1.48,4.18,2.82.42-1.45.95-4.12,2.17-4.81s3.75.36,4.97.97c-1.04,2.64.72,6.87,4.61,7.09,1.03-.66.47-4.88,1.31-4.22.9.72,3.15,2.29,5.2.96,1.42-.92.47-3.64.35-4.81,8.64,7.32,19.55,1.92,26.7,4.51,2.56-3.37,5.3-4.4,8.42-6.48.7,1.48,3.97,4.15,5.4,3.51l7.05-3.15c2.99-1.34,8.86,4.84,8.87,8.17Z"/>
      <path class="cls-133" d="M1304.16,619.31c-1.2,2.31.12,4.29,2.27,5.31-6.01,1.47-7.85,4.76-9.17,9.16l-2.34-3.27c-.31-.43-1.89.62-2.11,1.16-.31.75,1.35,3.27.73,3.78-2.62,1.48-6.03-1.8-6.83-6.04l-1.71,8.77c-2.62-1.72-3.89-3.62-6.07-6.11-4.9,2.5-8.71,5.28-10.95,9.65-.92-1.37-1.83-2.61-2.37-2.98-1.75-1.21-2.21,4.05-4.07,5.5-1.67,1.3-1.23-1.5-2.9-4.45,1.58-2.79,1.64-9.48,6.64-10.6,3.29-.74,5.52-1.45,6.78-5.56,2.89,2.92,5.36,4.62,9.36,3.73-1.34-2.27-2.23-6.58-1.03-8.46.98-1.54,3.51-2.3,5.18-2.57,2.27-.36,5.3,2.42,6.59,4.79,4.28-4.09,8.27-4.38,12.02-1.84Z"/>
      <path class="cls-6" d="M1243.88,563.02c-2.56,4.9-4.69,7.45-10.47,6.67-.63-3.36-1.65-6.34.04-11.69,5.69,7.15,7.99,4.79,10.42,5.02Z"/>
      <path class="cls-64" d="M1383.29,567.68c6.85-.09,12.32,1.35,16.42,4.32,5.01-4.58,10.85-4.32,17.52.78,0,0,.53-1.86,1.6-5.57-.03-5.67,2.83-6.63,8.57-2.88,4.96-4.39,18.85,6.89,16.38,12.86-.09,3.6-1.1,7.21-3.03,10.83,7.14,1.9,13.55,5.56,19.24,10.97,5.83,4.03,12.49,7.16,19.97,9.39,2.93-1.05,4.33.39,5.68,3.33l-.48,1.14c-1.1,3.08-3.19,4.56-5.67,5.88-2.72,1.34-5.69,2.1-8.9,2.28-7.39,5.05-14.13,4.27-14.42-5.58-8.09,1.58-16.65-6.52-14.79-14.66-8.76-6.21-14.28-7.56-16.57-4.05-6.47,2.7-10.89,1.71-13.26-2.97.2-5.23-3.21-6.16-10.24-2.79-3.3-2.97-7.77-3.88-13.42-2.74-2.51-.65-4.53-1.25-6.51-.64-3.21-5.94-8.96-1.71-14.95-3.94-3.67,3.58-6.6,4.59-8.77,3.02-2.41-3.7-3.09-9.36-6.01-13.29-1.15-1.55-7.4-2.42-3.83-6.46,1.69-1.92-.68-6.42-2.48-8.1-2.03-1.89-5.88-1.73-9.58-2.44.25-2.97-.42-6.94,3.29-8.17-.36,4.33,4.21,7.7,6.01,5.84-.01-4.01-1.48-8.19-.03-11.44.63-.14,3.07-.26,4.2.79l16.14,15.02c.6.56.39,3.27,1.06,3.83,1.77,1.52,3.19-3.55,4.24-2.64,3.44,2.95,8.61,6.41,12.61,8.06Z"/>
      <path class="cls-114" d="M1479.5,618.72c-1.39,1.25.17,4.61,2.1,5.58l-4.91,1.19-4.49,2.73c-.99.6-3.4.44-4.37-3.11l-4.13,6.79c-1.05-1.7-2.91-3.18-4.42-3.54-1.38-.33-5.32,2.13-6.48,1.28-2.33-1.72-4.16-6.48-7.87-4.81-1.33.6-3.27.73-4.26.53-.88-.18-2.47-2.12-1.88-2.8s3.03-1.48,5.7-2.34l-11.75-6.75c3.1-3.06,4.87-5.68,3.52-10.05-13.07-1.64-13.55,7.97-20.27,1.7,4.43-1.65,6.89-3.02,6.64-7.45-7.9,5.5-14.92,7.89-24.25,9.57-.4,3.96.08,7.41-2.44,11.92-6.38-7.32-14.91-12.4-23.96-11.41.37-3.46,2.8-4.47,3.85-4.31l3.35.53-1.67-5.7c4.65-2.05,8.61-3.17,12.73-.91-6.33,1.39-3.61,4.05.38,4.9,1.37-3.99,4.28-7.69,9.34-10.93l-12.09-3.13c10.13-6.54,17.88,5.59,19.32-8.88,1.62,4.2,4.04,6.74,9.71,7.02-1.07,1.47-2.63,2.03-3.09,2.99-.29.62,4.25,6.24,5.78,6.52,2.01.38,2.63-2.75,2.43-7.42,4.88,2.61,8,1.95,12.56.42-2.48,7.9,8.33,4.47,10.91,10.89.56,1.4-1.1,4.79-.27,6.04l7.46,6.95c1.17-1.68,2.76-2.97,3.67-2.32,1.12.81,2.52,2.11,5.2,3.04.86.41-1.86,2.16-1.83,3.16s1.87,3.16,3.66,4.62c3.49-4.44,11.74-7.4,16.08-2.53Z"/>
      <path class="cls-75" d="M1366.45,583.63c-.44,1.81-1.61,5.28-3.16,5.89-2.37.93-4.41-1.02-5.61-2.86,1.41-.22,4.12-2.18,4.37-3.92.19-1.32-1.82-2.89,0-6.02,3.68,2.01,3.38,4.99,4.39,6.92Z"/>
    </g>
  </g>
  <g>
    <path class="cls-101" d="M1608.56,281.42l.93,2.8c6.24-.25,12.49-.88,18.73-1.89,8.83,1.77,17.78,2.66,26.86,2.66,3.88-5.37,9.69-5.64,17.43-.81l4.64.45c8.14-4.61,17.3-5.1,27.47-1.48,7.67-5.88,19.88,1.53,10.5,7.58l-3.39,3.56c-4.67-2.88-3.41.26,3.76,9.44,4.02,1.37,7.03,3.21,9.02,5.5,2.82-.59,3.55-.5,2.24,1.98l-9.12,9.31c-1.04,1.05-3.46,2.59-4.25,2.19l-4.47-2.21c-1.92.98-3.78,3.25-5.95,3.45-1.73.16-3.78-.78-5.3-2.24-6.68,4.24-9.98-5.7-5-10.54-17.69-2.61-35.53-4.05-53.51-4.32-2.37-2.85-5.97-3.27-10.8-1.25l-8.06-3.12c-5.18,3.48-13.1,4.18-20.98,3.52-.7,2.87.23,4.96-2.53,7.12-.41-1.5-1.06-4.43-2.15-5.11-.73-.45-3.77.35-5.18,1.99,2.18,2.27,5.46,5.08,3.54,9.58-2.16-2.22-4.87-6.46-8.37-6.76-4.55-.39-6.39,6.84-6.68,12.42-9.61-12.32-20.82-7.78-17.9-18.61,14.95-6.97,16.07-19.5,48.54-25.21Z"/>
    <path class="cls-18" d="M1756.65,292.19l-.03,2.34c-.22,1.79-1.17,3.41-2.85,4.86.75,3.62-2.12,38.8-3.94,39.63-1,.46-2.16.57-3.38.57-.04-1.08-3.29-3.71-5.34-3.1-1.04.31-.71,2.29-.71,4.09-4.96-3-7.07-3.95-10.74-5.13,2.81-5.44,1-9.31-2.47-12.97,3.3-1.97,4.53-4.77,3.39-7.29-.68-1.5-2.19-3.1-3.82-3.98-.97-.52-1.77-1.2-2.24-1.98-1.76-4.28,1.07-5.88,5.09-6.07,2.47-7.33,8.24-12.61,14.72-14.91.4.11.89-.05,1.4-.24,3.71-5.4,8.89-1.04,10.92,4.16Z"/>
    <path class="cls-99" d="M1735.54,285.92c7.25,6.64-5.12,14.53-9.33,7.27-3.59,3.72-9.81,3.19-11.08-2.46.53-2.51-1.47-6.78-3.58-5.99l-6.57,2.47c-7.36-.5-14.58-4.22-21.91-1.18-2.41,1-4.41,3.79-6.01,3.29-2.49-.77-4.31-3.09-4.55-5.14-2.03.53-2.89-.14-2.07-2.08-6.07-8.6,10.51-8.76,16.93-5.86,5.88,1.12,12.3-2.57,18.54-1.7,20.08,2.79,25.99,10.4,29.62,11.37Z"/>
    <path class="cls-43" d="M1756.62,294.52c6.64,14.41-4.37,45.08-9,66.21l-6.5,29.63c-1.5-.08-2.87.65-6.27-1.09,5.15-1.24,4.14-7.32,5.65-10.15,2.97-5.6,1.32-7.56.71-12.46-.7-5.61,7.18-21.61-4.12-21.21,4.15-.66,6.63-2.76,9.38-5.88,2.07-2.35.25-7.24.65-10.5l1.5-12.33c.25-2.06,4.13-7.91-.6-23.41,3.33.74,5.63,1.42,8.62,1.17Z"/>
    <path class="cls-56" d="M1656.91,274.53c9.33-.48,13.84,2.05,13.54,7.58.69.35,1.97,1.2,2.07,2.08-1.64,1.56-4.33,1.49-6.24-1.21-2.91,1.04-4.59,1.5-8.51,4.3,1.41,1.12,5.53,2.33,3.22,6.46-7.29-6.32-14.07-8.23-20.98-3.27-7.99-5.42-17.18-4.97-24.79-.77-3.12-4.61-7.65-1.63-10.54-.3-2.38-4.21,2.2-6.51,3.88-7.97,12.09-2.13,23.32-6.38,37.42-.73-1.08-3.69-3.44-3.36-5.06-4.12l15.99-2.05Z"/>
    <path class="cls-61" d="M1744.33,288.26c.28.21.95,1.95.68,2.49-5.35,4.09-9.84,8.84-12.64,15.28l-7.86,3.2c-7.96,2.18-12.47-1.5-16.05-8.45-2.19-4.26-7.68-6.68-1.73-14.96,2.03,3.72,5.31,4.41,8.38,4.91,4.02.65,7.46.94,11.56-1.27,1.34,1.48,5.02,4.36,6.47,1.86,1.11-1.92,1.68-3.99,2.39-5.41l8.79,2.34Z"/>
    <path class="cls-101" d="M1687.38,276.25c-6.23-1.19-14.62-.81-16.93,5.86-4.74-2.39-8.21-6.58-13.54-7.58,11.8-1.51,27.92-2.6,30.47,1.72Z"/>
    <path class="cls-43" d="M1756.65,292.19c-4-.33-7.27-2.83-10.92-4.16-.99-2.25.62-7.79,2.95-7.53,6.97.8,8.03,6.7,7.98,11.69Z"/>
    <path class="cls-30" d="M1585.56,456.43c-.17,1.54-.41,3.59.1,4.79-1.36,2.69-2.08,4.8-2.17,6.33,7.07,3.17,7.31,12.01,4.7,18.97l4.72,6.51c-1.8,6.87.82,10.97,8.72,16.76-8.31-.53-11.84,2.38-15.26,8.77,3.11,2.26,2.95,6.06-.05,9.41.87,3.66.95,7.37-.13,9.92-1.32,3.12-4.81,4.14-7.67,5.24l4.06,2.92c.91.66.98,1.84-.45,2.2-1.13.28-2.14.34-3.37.32l-2.77.24c-2.78-7.84-6.16-17.5,1.06-25.24-2.9-1.61-4.96-3.8-6.19-6.57-4.85-2.71-5.77-9.6-.49-12.35-4.63-2.44-6.17-8.48-4.64-18.09-5.08-1.91-9.63-4.15-13.62-6.72-1.73-.33-1.75-.69-.04-1.08-.17-.47-.58-.83-1.05-.98-4.9-1.52-9.7-2.79-14.54-5.71,3.44-1.05,7.33-2.03,8.96-1.9,1.8,2,3.57,6.41,7.23,6.2l.74.76c2.77-7.25,7.1-9.72,12.98-7.41,3.26-2.87,5.2-6.53,5.81-11l4.33-.66c-1.72-6.06,7.02-7.02,9.05-1.62Z"/>
    <path class="cls-66" d="M1578.74,548.57c.31,2.18-2.18,4.68-3.78,6.13-.52-2.71-1.57-.36-3.16,7.05-3.24,1.92-4.54.32-3.88-4.82l-4-3.17c1.69-5.21.93-9.9-2.26-14.07-.82-2.28,1.18-3.54,6.02-3.76-7.01-2.44-1.16-16.4,3.18-18.93,3.67-.29,7.2,1.29,9.5,4.41,2.35,3.19-1.8,7.43-4.09,9.91l2.48,17.25Z"/>
    <g>
      <path class="cls-45" d="M1731.92,425.44l-7.82,23.62-27.64,37.61c-2.45,3.33-5.27,4.5-7.35,7.85-10.41,16.8-20.48,28.49-36.7,38.05-5.29,7.46-8.8,5.61-10.55-5.55,2.51-2.7,7.87-7.09,2.05-11.25l14.84-3.95c.84,1.21,1.57,3.75,1.72,4.46.23,1.1,1.47.9,1.85-.21l1.34-3.92c.53-1.56-4-3.73-6.57-4.37-1.87-.47-4.83,2.62-7.37,2.41l9.81-13.97c-.57,5.27,3.67,5.76,4.09.51l-7.28-12.54c1.58-1.23,4.81-3.24,3.93-5.17-1.8-3.95-11.82-2.06-8.35-6.45,1.88-2.39,11.31-2.35,18.41-7.75-2.96-2.62-4.94-6.41-7.43-11.16,2.5-.19,4.7-.62,6.93-2.05-5.61-.3-4.8-4.23-.04-4.07-.32-5.27,2.33-10.69,7.01-12.33.97-.34,2.86,1.21,3.9-.87.64-1.27.51-1.8-.47-2.16-.61-.22-2.56-1.08-2.68-1.81,2.08-1.96,4.89-1.79,8.83-2.03-.92,1.63-.96,3.98.91,4.48,1.75.47,4.37,4.19,3.42,2.12.56-2.74,3.03-4.13,2.23-4.87-.52-.48-2.72-2.25-2.22-2.78l2.69-2.85-2.27-4.17c1.1-3.34-3.35-5.95-4.6-7.99-5.84-9.43,22.32-2.26,16.09-16.02,3.33-2.67,8.27-.3,11.71,1.27,4.3,1.96,4.83,5.42,5.14,10.45,2.8-.15,4.94.24,5.82,4.27-2.9-.07-4.49.11-5.78,1.09-1.96,1.49-3.82,5.37-2.05,6.79,3.94,3.17,5.73,6.3,8.59,9.5.51-1.65,1.07-4.95,1.92-6.29.62-.98,3.34,1.76,3.96,2.07Z"/>
      <path class="cls-80" d="M1721.72,442.2c-1.16,3.16-5.03,1.7-6.41.55-2.26-1.87-2.88-4.72-3.76-7.92-1.34,0-4.42,1.07-5.57.12-3.71-3.04,1.18-17.19,2.22-12.56s18.4,6.49,13.53,19.81Z"/>
    </g>
    <path class="cls-109" d="M1568.92,581.9c-3.04,3.1-5.54,6.74-7.39,12.62-5.02-3.78-4.7-9.07-3.65-14.8l2.59-1.15c3.28-1.45,6.06.51,8.45,3.33Z"/>
    <g>
      <path class="cls-34" d="M1508.5,221.54c9.51,1.26,2.76,9.46-3.55,12.44,7.86,5.77,5.69,10.12.11,16.88.82,3.96.17,7.6-1.95,10.93,1.54,6.75,1.63,12.6.28,17.55,4.59,4.17,7.99,9.54,4.66,15.69,10.94-2.26,16.7,7.95,12.2,17.69,5.12,6.81,5.24,12.18.35,16.1-1.96-.5-13.56-.73-12.2,4.03,1.75,6.13,3.89,11.65,5.82,5.12,5.19-6.24,10.02-8.4,14.48-6.49.45-13.34,3.97-17.59,10.53-12.77-4.62,1.54-4.41,1.93.64,1.17,3.84-3.04,6.79-7.04,8.87-12.02l4.88-.84c2.01,2.09,4.57.45,6.39-.4,4.25,4.24,9.39,7.08,15.38,9.64,2.01-5.31,5.52-9.06,9.2-3.45.62,3.55-1.38,6.09-5.19,8.46l11.19,4.78c-3.35,3.12-1.64,6.37-1.61,9.91l-7.37,10.4c-.77,1.08,4.95,4.03,4.36,5.33-.62,1.37-4.11,2.99-6.17,4.13,3.4,3.19,7.01,6.28,4.85,11.24l-5.5-7.43c-2.05-2.77-4.73,1.38-4.74,2.66-.01,3.61,9.99,5.78,8.67,10.12-.73,2.41-4.36,4.17-8.7,5.58l8.72,5.31c-2.48.76-5.6,1.99-5.45,3.72l.56,6.27c-.76,4.58-5.42,2.4-3.15-1.36-.14-4.9-5.72-3.18-4.27,1.12-1.4,7.73-12.35,6.4-17.17.54-2.2-11.73-6.78-14.79-13.74-9.2-7.41-3.5-13.76-9.43-19.06-17.79,8.09,20.41-2.99,15.64-15.27,7.04-7.1,4.92-11.77,4.76-14-.48-5.41,12.88-16.93.75-11.74-10.39-2.3-4.87-1.81-8.34,1.47-10.43-5.95-1.7-7.96-4.29-6.03-7.76l-5.56-3.89c-5.46,2.52-9.97,1.83-13.52-2.07-2.16,6.17-5.55,9.86-10.16,11.08-2.28,7.43-13.61,1.78-10.14-4.9-.07-2.97,1.07-6.18,7.42-7.45-9.09-5.88-14.82-15.8-20.1-25.99l-3.4.55c-.54.09-1.54.05-2-.83s.88-1.68,1.39-2.01c-1.58-3.67.17-4.54,3.36-2.02.35-6.04,1.43-4.45,4.35-.12,7.24-.69,6.7-2.11-1.63-4.25-2.67.49-4.2-2.39-1.51-3.95l.86.4c.95-3.81,2.77-7.17,5.46-10.08,1.39-4.86,2.04-9.69,1.93-14.49,9.23-5.35,10.07-9.35,2.52-11.99l.5-9.84c-3.89-3.85,3.21-24.9,3.8-29,3.73-13.37,16.51-4.02,13.97,6.65,7.67-1.84,14.46,2.6,20.36,13.3,5.15-2.65,5.9-3.92,2.75-9.15,2.41-2.9,3.06-5.6,1.96-8.11,4.71-6.42,10.53-10.7,17.46-12.85,4.26,3.31,8.64,5.96,13.14,7.94Z"/>
      <path class="cls-6" d="M1364.36,366.89c7.21.88,8.21,13.13.15,13.04,3.39,4.99-.57,16.75-6.48,18.31l4.11,5.48c3.34,3.69,7.66,7.48,12.94,11.37,5.99,6.66,9.91,28.8-.19,30.74l-2.73,4.73c-17.96-3.3-34.95,13.28-42.5,28.19l-5.55.7c1.58.94.72,3.07-2.57,6.39-1.36,4.62,1.32,7.35,8.06,8.21-1.63-5.97,12-20.02,16.76-23.55,3.52-2.62,5.43-3.67,8.39.39,7.9-4.19,7.91,6.46,7.24,12.84,5.28-3.99,11.95-.57,5.89,6.06-.12,10.33-1.37,22.38-3.94,31.38,4.12-2.3,5.37-2.03,3.77.82,5.87-5.44,12-2.57,18.38,8.59,3.06,8.34,7.62,15.79,13.68,22.35,4.82-.41,4.15,7.06,2.31,10-4.71,7.54-11.12,7.29-18.77,4.75-.61.88-1.26,1.67-2.1,2.11-1.03.54-20.45-6.06-19.35-9.05-7.21-5.28-12.81-11.32-16.8-18.12-4.3,2.8-6.19.29-5.46-4.74-9.09-.5-14.75-3.65-16.97-9.45-5.34-4.94-8.84-10.19-10.5-15.77-4.01-3.5-20.33-20.56-20.68-23.78-.21-1.94,1.33-3.69,2.85-5.1,2.94-6.91-9.38-9.88-7.48-19.91-6.93,1.99-8.67-5.27-9.23-9.38,1.63-.35,3.28-1.27,4.47-2.81,2.14-1.81,4.4-2.95,6.78-3.43,2.09-6.5,5.08-2.26,7.48,2.5l.97-2.65c5.02-.25,10.4-.39,16.13-.42-1.4-6.12-2.24-11.16,4.15-14.6-6.37-9.07.92-11.4,9.18-10.99-.71-17.06,11.63-9.05,17.38,1.03,6.15,6.6,8.51,4.12,7.1-7.45-3.25-1.95-10.28-12.71-9.39-15.98.46-1.68,1.48-2.97,3.04-3.74-3.43-4.76-5.82-9.68-7.17-14.76.35-1.75,2.95-3.4,5.22-3.89-.76-7.1-4.83-10.45-9.64-15.22,10.7,6.01,15.44-1.31,13.98,10.52,3.94-.97,6.29-2.29,10.57-2.16,1.81-.89,3.61-3.7,6.55-3.56Z"/>
      <path class="cls-47" d="M1536.65,236.55l3.58,19.92,1.08,25.89c15.72,4.71,10.5,29.97-1.42,37.53-.12.72-.62,3.2-1.47,2.97-1.49-.39-2.65-1.71-3.73-2.99-.68-.26-2.03,1.97-1.61,2.6l2,2.99c-2.85,5.48-3,11.42-2.99,17.85-2.36,1.28-4.97-1.23-6.04-3.03-.89-1.5.39-3.76-.38-6.87-4.76,1.6-3.5,5.98-4.48,7.92-2.45-.18-4.12-.49-4.99-.05-1.21.61-1.64,2.53-.54,3.06l3.49,1.67c3.05,1.46,1.67,3.11.09,4-1.16.65-10.59-4.29-11.9-5.85-1.2-1.44.57-5.14.77-6.84-1.66-.02-4.76.22-5.38-.83-.98-1.64,4.05-10.13,8.32-11.95,1.73-.74,5.08.54,7.94,1.06,3.91-4.07-1.72-8.49-3.87-11.48,1.15-3.4,4.49-7.82,2.1-10.65-1.44-1.7-3.1-6.27-6.26-6.13-.89,1.55-3.92,4-4.79,2.53-.78-1.34-1.59-4.36-4.76-3.38.15,1.03,1.93,6.12-1.54,6.57-2.34-.96-1.88-6.45-1.14-8.7.53-1.61,5.15-.22,7.28-2.1.9-1.14-1.53-2.2-2.08-2.69s.33-1.91,1.28-3c-2.35-1.52-6.76-5.39-6.37-8.33.18-1.32,4.11-3.1,2.66-5.32-.72-1.1-3.64-1.75-5.25-2.38,2.06-2.05,3.76-4.46,3.45-6.04-.4-2.05-2.2-3.76-4.8-5.89-.97-.79,1.6-3.5,2.48-2.92l4.97,3.32c-3.11-6.73-1.81-12.44,4.56-16.22-1.47-4.12-4.42-4.95-7.23-7.64-4.12-3.95,13.76-6.74,8.8-13.61-4.54-4.52.36-9.21,5.75-7.69-1.6-3.08-1.95-6.79.38-9.41-.17-3.41,1.87-6.67,6.11-9.76,4.17-11.76,11.89-24.71,20.51-8.87-4.17,4.27-5.51,8.45-4.04,12.55-4.39,11.53-4.58,24.26-.56,38.19Z"/>
      <path class="cls-125" d="M1483.3,184.06c7.06-1.77,9.69,3.62,13.43,6.39,3.15-.4,7.48,1.05,9.47,6.1l5.17,3.34c-4.87,4.51-5.02,8.32-.47,11.44,2.63-3.45,5.25-1.39,3.35,2.53l-5.75,7.69c-2.14.92-7.05,2.79-9.36.47-1.19-1.2-3.73-5.58-5.91-4.64-1.23.53-2.51,3.26-4.39,4.4-1.13.69-.35,3.39,2.37,5-4.61,2.22-6.29-.78-9.96-2.74,2.11,4.03,2.3,7.44-1.88,10.7,2.64,2.61,3.42,4.8,2.2,6.86-5.95,10.06-16.55,4.16-6.45,12.15-4.46,2.01-10.9,3.51-14.71.34l7.07-2.16c1.28-.39.57-3.55,2.39-6.08l-11.66-13.64c-3.38,2.77-7.58,3.85-10.96,3.11,1.28-4.89,2.13-7.34,1.95-9.72s-3.96-3.73-6.54-6.08c-.54,1.51-1.58,3.08-3.79,4.24,2.52-17.41,10.02-33.41,28.08-39.38,3.23,2.1,7.48,1.81,12.76-.86l3.6.55Z"/>
      <path class="cls-14" d="M1573.6,192.32l-10.85,7.86c-5.37-.82-9-.84-10.88-.04-3.5,1.27-7.15,2.18-10.96,2.73-1.39,2.87-3.25,4.89-5.58,6.05l1.31,27.62c-9.92-24.51,2.13-40.56-7.79-45.98,5.49-1.66,8.73-3.15,8.59-7.79-3.95.71-6.43.41-9.18.16-1.56,14.44-9.55,13.18-9.52,18.17.01,1.49-3.04,4.13-4.11,3.33-1.81,1.77-3.06,4.06-3.74,6.88-4.51,1.38-8.85.92-12.91-1.16,2.93-1.31,5.06-3.89,2.73-6.33,3.68,4.17,6.17-.3,6.5-2.56.22-1.46-.34-2.97-1.03-4.73,2.63.93,6.37,2.95,9.14,2.15,5.66-1.64,2.64-12.24,13.26-25.35,7.55-6.75,16.87-1.11,23.11,5.1l1.82-8.54c-6.79-5.33-4.56-14.42,2.8-8.96,12.1,5.96,17.03,18.6,17.28,31.37Z"/>
      <path class="cls-7" d="M1295.81,244.82c.88,4.54,1.07,7.49,5.85,11.18-4.65-1.91-6.77,1.86-10.69,4.29l-10.33,6.38c-.88,2.99,1.47,4.44-.63,4.88-1.68.35-3.21-2.12-3.77-3.02-1.25.56-3.11,2.41-4.37,2.15-2.03-.42-3.34-1.66-4.14-3.24-2.06,3.38-2.35,6.01-1.54,8.23-4.93,7.33-21.74-4.25-18.58-11.26,5.04-5.24,6.73-9.05,16.21-11.07,10.33-2.2,21.19-10.79,31.99-8.52Z"/>
      <path class="cls-3" d="M1553.64,307.03c-4.61,6.79-3.87,11.32-13.75,12.85.08-2.55,1.9-4.62,4.42-5.84-4.78-1.17-7.07-4.06-6.1-6.9,1.6,1.7,3.28,3.52,4.57,3.93-.27-.09,11.92-16.85,1.06-24.45-1.85-.83-8.3,1.77-8.41-2.4,2.64-2.94,2.35-4.11,1.68-7.64-1.2-6.28,2.08-13.64,3.11-20.12l9.3,26.19c2.76,7.77,6.18,17,4.11,24.38Z"/>
      <path class="cls-65" d="M1556.32,160.94c-1.41.45-3.9,1.87-3.33,3.75.71.35,3.77.7,4.41,1.66.18.27,2,13.96-6.46,18.46-7.19-10.47-11.39-9.87-22.35-11.47,6.02-7.43,13.21-20.27,22.03-18.1,2.3.57,4.6,3.14,5.7,5.71Z"/>
      <path class="cls-63" d="M1424.64,299.14c-1.33-9.22,1.93-17.51,5.38-26.85,2.45-6.64,1.7-14.15,5.03-19.54l2.35,8.01c3.18-.65,5.05.26,6.48,1.32,2.14,1.57,1.19,3.97-2.15,4.98l7.97,8.41c-5.74-1.04-10.55-1.84-16.48,1.47,3.18.54,8.62,4.16,7.06,7.58-.47,1.03-4.68-.29-5.45.45-1.45,1.4,3.29,6.49-10.21,14.17Z"/>
      <path class="cls-37" d="M1266.2,275.67l2.92,2.46c-.91,1.83-3.14,3.93-5.31,4.12-.79-.18-2.04-2.26-3.29-1.23-1.36,1.13-1.08,3.73-.46,7-4.97.73-8.82-1.46-14.36-2.11,1.48-3.12,3.29-3.99,4.53-5.16,2.92-2.76-.11-4.17-1.27-5.5-2.12-2.43-5.84-3-6.57.12-2.04,8.62-5.79,15.8-3.24,24.96.68,2.44-1.19,5.49-1.55,7.21-5.29-15.58-.81-31.9,10.02-43.14,5.65,6.02,11.45,10.33,18.58,11.26Z"/>
      <path class="cls-74" d="M1551.87,200.14c7.26-3.36,27.62,1.26,14.77,9.18l-31.31-.39c-.35-4.31-.3-8.24,4.92-10.3,4.26-1.68,7.37-1.17,11.62,1.51Z"/>
      <path class="cls-129" d="M1573.6,192.32c.1,4.88,2.17,11.02,3.95,17.2-3.96,3.65-7.93-.16-10.92-.2.37-.89.7-3.9.14-4.88-.48-.85-2.01-.99-3.85-.61-3.36-2.44-8.58-2.12-11.06-3.68-1.05-.74-.14-3.39,1.62-2.83,11.02,3.49,11.56-11.44,20.11-4.99Z"/>
      <path class="cls-126" d="M1340.47,245.92l-3.09,1.6-16.36-5.22c-1.88.91-5.18,4.07-7.31,3.97-2.47-.12-4.68-1.65-5.99-4.41,10.6-6.14,23.11-2.84,32.74,4.06Z"/>
      <path class="cls-44" d="M1423.78,298.74l1.51,3.95c5.51-.93,6.04.87,1.63,4.25l-4.35.12c.65-7.01-6.98-7.34-14.52-13.33-5.94.56-10.12-2.22-10.71-7.94,3.94,2.16,10.53.98,14.64,5.06,3.73,3.71,7.6,5.96,11.79,7.89Z"/>
      <path class="cls-104" d="M1483.3,184.06c-4.34,1.09-7.98,2.42-11.91,5.31-1.74,1.28-6.22-3.57-4.44-5l12.32-2.29c2.38-.44,4.41.73,4.04,1.99Z"/>
      <path class="cls-106" d="M1543.87,562.98c3.8-10.19,16.42,5.32,15.78,12.22,5.58-.83,5.45.5.81,3.38,1.53,3.71.1,4.28-2.59,1.15-1.65.73-2.8,4.55-5.42,4.96-4.81.76-10.57,2.98-10.63,7.72l-.06,3.97c-3.02,3.02-23,18.8-20.3,9.28.29-1.02.86-1.95,1.5-2.87l-1.58-2.29c3.24-3.38,7.38-6.8,12.42-10.28-8.26.22-14.24-2.87-6.67-10.34-1.57-3.02-.84-5.54,2.01-7.59-3.33-1.07-13.27-11.31-13.81-14.78-.7-4.5,3.82-10.74,8.42-7.22,5.32.64,10.88,1.67,16.67,3.08.54,3.42,1.14,6.89,1.82,10.42,2.6,4.23,3.14,3.96,1.63-.82Z"/>
      <path class="cls-138" d="M1570.82,393.07c3.28,3.06,3.66,7.34,2.98,12.94,3.45-.63,6.46-.03,6.88,2.3.57,3.12.21,5.67-3.1,9.51,3.65,2.15,5.87.24,8.61-2.55,1.67,1.91,3.25,6.21,2.41,8.84-.66,2.06-2.24,5.96-4.77,6.15-1.11,1.9-3.04,2.8-3.97,1.35-.09-.14,1.2-.93,1.71.94,2.34,8.63,2.26,26.22-8.81,18.09-2.12,12.23-6.93,12.67-13.31,1.51-6.66,6.42-12.78,8.41-18.37,6-2.89,12.39-11.47,11.74-14.91-.29-.02-.08.69-.3.65-.29-9.86,3.12-19.7.92-13.02-10.55l-1.34-3.51c-10.51,1.53-14.97-1.69-13.4-9.68,5.28-1.15,6.83-5.35,4.63-12.58-4.61,6.95-13.43-1.94-7.71-7.53-3.36-6.71-6.31-13.65-8.84-20.82,1.64-5.49,1.59-10.02-.15-13.58-2-3.68-.47-5.73,4.61-6.14,2.33-.39,6.11.54,9.27-1.71,4.85-3.45-11.43-10.45-6.8-17.58l11.74,15.33c5.39,2.38,9.65,3.6,13.38,10.68,1.86-7.51-1.85-13.23-9.6-12.61,1.34-3.52,2.44-5.78,5.27-8.06,2.13,3.05,4.98,4.04,7.63,2.81,1.38-.64,1.67-3.37,1.96-5.62,4.15-2.06,8.15-2.84,8.25-9.63l8.59,14.1c-3.62.45-5.48-1.48-7.25-4.06l-.77,11.16-9.31-3.91,15.22,17.57c3.16-5.37-.25-6.67-.75-9.42,4.76,3.95,7.28,7.58,13.74,4.32l6.18,17.82,12.49-1.31Z"/>
      <path class="cls-17" d="M1296.29,450.76c-3.38-4.13-5.88-4.97-7.48-2.5.46,1.33-2.18,4.92-3.3,5.76-.96.72-3.23-.94-3.48-2.33.18-1.9.93-4.31-.15-5.34-1.41-1.34-4.55-2.72-7.82-4.59,3.88-1.66,4.43-4.45,4.7-8.53,1.7.17,5.91-.49,4.61-2.36l-4.5-6.45c2.58-.56,5.51,1,7.9,2.2-2.36,5.12,3.94,11.64,7.42,10.64,3.84-4.34,8.1-6.52,14.22-2.8-4.61-9.21,10.89-13.52-2.27-18.26,14.65-4.53,4.29-18,23.5-13.54-1.02-4.7-3.19-11.34-.46-14.85,1-1.29,5.89-1,7.06-2.09,1.03-.97,1.17-3.21,1.43-4.53,4.13.11,5.53,3.43,7.81,7.45l6.27,11.06c-3.61-.86-7.15-.1-7.07,2.31,3.9,1.85,4.84,3.37,4.58,7.58,2.73,1.87,5.01.37,6.93-1.8-.9,8.55-1.86,17.07-.8,17.98,1.51,1.3,3.75,1.16,6.08,4.55-11.62,3.35-20.03-1.14-25.6-11.42-1.17-1.73-3.03-3.08-4.29-2.71-1.38.41-3.1,2.58-1.4,3.47,1.01.53,3.58,1.06,5.47,2.96-3.98,3.94-10.94,4.18-17.74,3.78,4.1,7.25,9.67,8.84,11.42,15.2-3.48,1.32-6.36,2.57-9.6,2.31.23-3.76,1.58-4.23,1.01-5.23s-2.76-1.38-3.36-.86c-3.4,2.88,4.55,14.27-3.38,16.82-.88-1.99-3.07-4.55-4.31-4.14-.73.24-1.95,1.16-3.98,2.88l10.81,15.85c-4.23,1.26-4.45-2.67-5.1-3.87-1.17-2.13-4.28,4.07-4.71,3.95-3.16-.91-2.05-3.87,1.31-7.97-1.28-3.3-7.14-.67-9.1,1.64l1.33-5.14c.42-1.61-6.8.08-8.63-1.92-.59-.64.15-2.79,1.1-3.02.87-.21,2.64.72,3.66,1.63,1.71,1.54,3.45.61,3.99-.57.32-.68-.21-2.32-1.26-2.62-.72-.21-.9-.24-2.81-.57Z"/>
      <g>
        <path class="cls-68" d="M1339.65,258.86c3.42,5.63,6.1,6.38,8.02,2.25,8.42-2.33,26.23,11.2,23.71,19.78,1.48,3.62,2.21,5.43,2.21,5.43,7.01-3.55,10.76-2.23,11.25,3.96,3.25-1.85,24.27,6.6,24.44,7.93.21,1.61-.38,3.08-1.44,4.28,4.74-2.85,15.27.88,11.38,6.6-.31,1.8,1.45,1.84,5.28.1,4.5,4.58,8.38,9.78,11.63,15.62,9.06,8.87,14.71,15.42-.24,20.02l-1.64,4.53c-5.48.01-10.38.78-14.71,2.3,10.32,10.04,11.77,25.28-4.98,15.27-4.56,3.8-8.36,4.29-11.41,1.46-.97.52-1.71,1.55-1.76,2.81,8.77,7.98-13.34,21.24-17.77,10.88,2.26-6.45-1.96-13.75-8.54-14.67.29,6.29-9.7,5.34-10.73-.51-.69,6.36-6.54,9.41-17.55,9.14-1.3,5.69-4,6.72-9.12,5.17,6.58,5.08.94,8.75-5.63,10.31,1.93,7.19.96,12.01-2.9,14.44-6.54-1.44-11.51,2.14-14.93,10.72.79,6.27-.78,12.92-4.71,19.96-5.55-.83-10.16.58-13.82,4.23-4.68-.95-8.31-2.4-10.87-4.34-4.55,1.18-4.19,4.88.07,7.13,1.69,4.92.74,7.61-2.85,8.05,1.77,5.92-.17,7.16-4.47,2.81-.78-5.73-4.46-8.16-7.77-13.15-7.11-10.72-12.59-22.68-17.04-34.98-1.81-4.99-1.36-12.3-1.8-16.66,0-6.75.74-8.83,7.88-8.99-8.09-5.78-11-12.93-8.75-21.45-5.51-4.19-2.88-8.01,1.06-12.7-3.13-4.84-2.12-10.16.75-14.94-1.64-.76-2.68-2.21-2.57-4.17.31-5.52,4.56-18.49,7.72-22.84-3.36-5.22-1.33-12.37,4.63-14.27-1.66-3.16-1.24-6.89,2.13-8.1-.78-4.96.64-5.59,5.31-4.12,7.35-8.82,20.58,9.12,24.1,15.9.72,13.9,4.39,17.32,18.03,19.32l-1.85,6.22,1.63-1.14c-1.02-5.34-3.88-7.31-8.58-5.91-.5-6.89-3.2-10.98-8.08-12.28-3.14-8.64-4.5-17.71-4.07-27.21-5.23-6.57-1.38-11.3,11.56-14.18,2.12,2.47,4.49,1.19,7.12-3.84,3.58.36,7.1.08,10.54-.85,3.57,2.77,7.51,4.47,11.84,5.1,2.75-6.41,8.31-7.86,8.3-.42Z"/>
        <g>
          <path class="cls-118" d="M1263.81,282.25c-1.12,1.75-.52,3.11.42,3.77,1.04.73,2.91,1.87,4.28,3.34-3.83,2.2-9.13,5.7-9.14,10.83,0,1.45,3.48,4.21,2.94,5.53-.57,1.4-2.77,3.35-5.79,3.88,3.57,6.74-4.85,9.6,1.22,13.88,2.22,1.57-1.28.73-5.86,3.41,3.2,1.74,8.7,4.17,8.66,8.27-.01,1.35-2.84,3.23-3.13,2.64-.37-.75-1.09-2.34-1.91-4.4-2.63,5.06-3.9,10.15,2.51,13.8,1.26.72,2.04,2.66,1.58,3.54-1.21,2.33-5.14-.87-8.43,1.99-.77.67-1,1.51-.06,2.18s1.74,1.55,4.98,2.17c-1.65,4.69-3.35,8.69-2.63,14.46,5.65.94,12.5,8.58,8.67,13.68-4.66-.87-9.01-.14-11.17,4.5-1.33-13.08-8.51-28.27-8.49-34.65l.08-35.05c-1.05-3.44-5.79-8.53-4.95-12.46-2.18-6.35.54-40.92,10.43-37.63,4.57,1.52,9.38,8.88,5.96,13.5,3.64-5.86,9.54-9.9,9.83-1.17Z"/>
          <path class="cls-70" d="M1307.73,241.86c4.88.62,9.92.26,15.12-1.08,6.48.86,11.32,3.1,14.53,6.74,12.98,1.49,13.4,21.38,2.27,11.34-2.42-2.41-4.78-1.23-3.67,1.95.25,1.96.29,3.78.1,5.34-.11.88-2.29,1.46-2.91.75l-3.54-4.04c-4.59-.45-8.43-1.02-9.89-5.94-1.54,2.09-3.23,3.8-4.3,4.19s-3.36-.99-3.51-4.08c-4.98,3.22,1.17,12.02-8.41,9.88-.43-.6-.11-2.15-.31-2.94-.29-1.15-3.22-1.65-4.01-.8-.74.8.38,3.46-.53,5.61-2.71-.85-4.97-4.23-8.78-2.88,9.02,5.52,2.08,17.78,7.12,31.55,2.36.85,6.35,1.35,6.91,3.02.67,1.97.79,5.63.82,9.97,2.33-.54,7.98-2.17,9.36,1.66-.23,1.44-4.16,3.68-3.06,6.34.11.27.39.61.64.78l3.01-2.98c1.19-1.18,3.96.75,3.7,2.53-.68,4.66-2.09,8.42-4.62,10.99-2.14-3.51-4.71-5.83-3.33-9.13.04-.17-.35-.87-1.03-1.05-.04-2.33-.38-4.7-1.97-6.33,1.66,6.24-9.23,1.65-15.32-4.03-2.72-2.54-.97-9.77-1.3-13.54-13.8-8.32-12.21-25.86-18.36-11.54-3.51-1.05-1.96-4.84-3.34-6-2.89,3.3-5.02,1.53-2.92-2.46-8.75-3.82-2.93-13.28,6.01-9.49,7.22-3.12,14.11-7.29,20.66-12.51-1.05-4.3-.07-7.25,2.95-8.85,4.24.89,7.76-.54,11.92-2.96Z"/>
          <path class="cls-83" d="M1390.05,281.8l7.3,3.99c7.98,4.81,16.16,9.56,24.56,14.24,2.75,3.2,2.98,5.54.67,7.03-.95.86-2.05,1.52-3.36,2.02-2.17-6.65-8.43.07-23.52-7.4l12.82-2.15c-16.22-.79-19.62-11.99-23.49-1.54-3.54-2.13-5.13-6.57-3.99-11.58-3.65,2.05-3.64,4.83-4.87,7.27-3-3.8-6.53-4.02-6.78-5.92-.36-2.79.32-5.45,1.99-6.89.95-4.76,5.55-4.66,13.78.28l4.89.63Z"/>
          <path class="cls-24" d="M1390.05,281.8c-3.31,3.07-6.49.95-10.94.27l-7.72-1.18c-5.87-7.68-18.64-16.95-20.31-16.94s-3.83,4.43-5.86,4.94c-4.42,1.09-8.23-6.78-5.56-10.02,1.81-1.2,3.58-.69,5.92.09-2.05-4.4-5.02-9.52-8.19-11.43-2.64-2.65-1.61-3.18,3.09-1.6l15.96,11.43c11.54,8.26,21.4,17.76,33.61,24.45Z"/>
          <path class="cls-4" d="M1435.89,344.82c3.52,3.58,6.38,4.86,10.14,4.9,15.28-13.7,25.04,9.31,6.81,16.81-5.1,3.1-9.46,6.34-13.1,9.71,9.2-.68,8.56,10.8,2.19,14.64.28,7.37-5.21,5.77-9.95,3.34.11,3.43-3.41,7.09-6.2,8.81,1.14-.02,1.46.5.98,1.54,6.69,9.02-.81,13.07-7.84,6.58-1.54,3.64-2.56,3.73-3.06.28-5.56.4-6.71-4.14-1.64-6.45.04-3.09.88-6.53,2.52-10.32l-2.59,1.21c-4.47-7.06-9.54-9.69-15.21-7.89-5.97,11.63-15.05,8.92-15.79-4.02-1.8.65-2.22.08-1.31-1.67-3.57-3.04-8.43-10.13-6.78-14.92,5.69-4.67,5.22,3.57,16.62,10.09-2.47,1.36-5.43,1.38-6.64,5.28,8.19,1.85,15.23-4.85,16.33-11.58l-.37-1.69c-3.05.12-6.07.16-9.31-1.92,3.36-4.25,3.78-7.12,5.46-11.18,2,5.46,3.67,8.43,5.46,11.94.05.07.26.15.52.04l14-7.6c.69,4.1,2.8,5.56,4.37,6.13.94.34,3.34-1.94,2.55-2.94-3.21-4.07-9.21-8.37-8.88-14.14,1.36-1.3,4.66-3.36,5.31-4.62.52-1-.31-3.9-2.7-4.43-1.22,1.87-3.94,4.47-6.32,1.67-.95-1.12-.93-4-2.73-5.5l-2.37-1.98c-.49-.41.7-2.14,1.27-2.53.77-.52,2.44-.9,3.25,1.21.79,2.04,5.82,3.59,7.41,1.98.91-.91-.56-3,.38-6.47.58-2.13,4.07.2,3.82,2.01-.13.93-1.13,2.6-.53,4.85,1.37,1.45,5.89.43,7.91,5.05-3.02.58-5.41-.18-6.59.23-.96.34-.55,4.26.7,4.4,3.8.42,8.14-.12,11.86-.87Z"/>
        </g>
      </g>
      <path class="cls-60" d="M1375.08,367.4c4.54,3.9,9.24,8.92,6.78,14.92-1.3,8.01-17.94,6.36-17.35-2.38,2.3-3.7.72-8.59-.15-13.04l10.73.51Z"/>
      <path class="cls-13" d="M1481.32,352.36c-.99,3.36-3.56,6.18-7.72,8.46,7.59,1.69,8.14,6.6,1.66,14.72,14,10.96,14.26,18.9.76,23.82l-7.29-2.31c-2.64,4.83-12.42,4.7-8.61-2.56.02-2.07-2.17-1.2-6.55,2.61-1.86-2.62-3.76-3.62-5.71-3.01-.51,1.83-1.18,1.83-2,.06-4.57,1.68-4.74,1.53-3.93-3.27-1.91-3.01.21-6.14,1.33-11.37-2.61.64-5.43,2.26-7.78,1.3-2.06-.84-4.41-4.73-3.44-6.86,1.68.96,3.5,1.44,3.99,1.17.73-.4.38-2.72-.77-4.77,7.16-.78,13.75-4.52,17.6-10.36,1.62,4.33,4.57,2.15,3.33-.71-.2-3.48,2.36-3.19,3.41-3.58,1.25-.47-1.99-5.84-3.33-5.85l-10.26-.12c3.5-9.14,7.59-14.55,11.33-21,2.01.28,6.35,1.29,3.28,3.99-2.54,1.13-1.31,3.95-.12,4.16.96.17,1.94,2.13,2.92,2.4s1.75-3.53,2-4.73c7.21,1.73,15.73,8.61,14.86,10.51-.4.89-1.85,1.92-3.17,2.59,2.26.84,3.84,1.33,5.02,2.17.66.47-.46,1.92-.84,2.55Z"/>
      <path class="cls-122" d="M1481.32,352.36c.34,3.17,3.72,9.19,2.33,12.56-2.2,3.49-1.76,7.36,1.23,9.42,1.57,1.08,3.21-1.47,6.72-1.16-3.23,2.49.92,7.07,1.39,9.67-2.46,6.77-3.24,14.09,3.59,17.91l-.6,12.96c-3.33,4.38-4.96,2.94-3.94-2.44-8.29-2.8-16.12-6.6-23.49-11.39l.19-2.82c2.66-.7,6.89,1.65,9.29-3.79-1.96-1.29-6.13,1.73-6.85.29-.86-1.72-2.13-3.94-.82-6.93,4.89,1.37,7.94,5.42,14.08,4.38-5.44-4.98-9.58-10.53-13.87-14.07l-5.94.11c-.75.01-1.8-2.8-.95-3.01,6.43-1.47,9.34-2.9,13.63-8.11l-11.55-2.62c-1.18-1.97-2.18-4.88-2.16-6.15.02-.83,2.88-1.35,3.77-1.03.78.28,1.33.7,2.99,2.22,3-4.02,6.65-4.99,10.95-5.98Z"/>
      <path class="cls-63" d="M1426.92,306.95l-1.63-4.25c1.87-1.27,4.23-2.99,6.06-2.55,2.72.65,5.88,2.36,5.28,5.09-.77,3.5-3.84,5.1-6.19,5.08-1.4-.01-2.91-1.77-3.52-3.36Z"/>
      <path class="cls-26" d="M1388.54,456.47c12.91-8.64,18.6-1.54,11.59,11.27l.4,4.76c-6.27,7.7-11.68,16.16-16.22,25.37l-4.66-1.04c-6.99,8.63-5.81,2.19-2.96,1.15,1.5-.55,3.03-.17,4.46.44,9.72-6.16,9,6.75-2.28,10.16l.21,4.39c1.1,5.25-11.06,9.9-15.15,8.2-7.2-10.65,3.45-22.11-.95-33.47,1.9-.48,2.17-1.29,2.79-1.54,1.66-.67,1.37-2.54-.16-2.69-1.2-.12-3.07.63-3.63.28-4.16-3.2-2.55-6,4.83-8.39,3.59-7.41,3.15-9.11-1.34-5.11l-4.54-3.03c-5.2-5.89,2.99-10.21,8.72-11.9-.39-5.67,3.74-8.98,8.68-6.77,5.69-6.62,14.64-1.26,8.77,6.53-2.29,3.04-1.93,4.56,1.45,1.4Z"/>
      <path class="cls-84" d="M1374.89,445.84c3.43-4.71,5.65-2.51,3.43,2.7-3.94,1.67-5.86,5.34-3.62,10.11-6.59.61-11.48,3.4-13.78,8.56,1.02,5.52-1.78,7.31-6.19,3.69-1,.79-4.07,1.4-5.4,2.25-1.84,5.17-7.37,7.78-10.86,11.43-3.25,3.4-4.81,7.88-8.88,9.48-8.7.7-13.45-7.3-4.39-12.82,7.27-4.43.74,4.81-1.09-1.77,4.24-4.94,4.58-11.51,11.32-16.82l17.93-14.13c5.13-4.04,15.17-.64,21.53-2.68Z"/>
      <path class="cls-53" d="M1381.3,410.97c5.43-3.4,14.13,7.9,10.17,12.7,2.99,1.25,3.77,3.76,2.35,7.56,1.88,2.21,11.54,14.06,11.53,15-.05,4.77-4.03,8.67-8.15,6.32l-8.67,3.92c-.16,1.72-.59,3.55-2.53,4.83-2.55-3.69-1.85-6.47,1.01-9.45-2.52-2.16-5.63-3.17-8.7-3.31l-3.43-2.7c4.09-15.06,1.02-33.92-10.96-28.67,1.84-2.46,2.77-5.97.16-7.67-1.41-.92-6.88-2.68-5.95-5.62.56-1.79-.47-3.41-.11-5.63,1.82-4.04,20.61,6.21,21.45,7.29l1.82,5.43Z"/>
      <path class="cls-88" d="M1381.86,382.31l1.31,1.67c4.17,7.46,4.73,20.47-2.96,25.31,1.2-.18,1.52.42,1.09,1.67-1.76-2.2-12.96-4.55-23.27-12.73,1.08-6.66,2.89-12.54,6.48-18.31,4.87,3.72,11.59,3.29,17.35,2.38Z"/>
      <path class="cls-10" d="M1418.83,567.2c.98,2.27,3.46,4.12,5.56,5.16-1.54,4.03-3.68,4.9-6.62,4.66-3.1-.26-6.24-1.43-8.79-5.04-4.12.64-6.59,3.73-10.45,5.65-2.22-3.23-5.97-7.23-8.97-6.74-4.35.71-4.68-2.56-6.26-3.21,4.98-.96,11.57-1.29,15.06-6.38l1.4-8.37c-2.34-3.29-1.09-4.29,2.38-2.07,3.23-5.67,8.01-2.65,14.36,9.07,5.88,1.57,8.13,4.49,2.34,7.28Z"/>
      <path class="cls-11" d="M1379.07,512.97c6.98-5.63,17.75-.2,10.57,9.39,5.84,7.25,13.63,19.23,12.48,28.5l-2.38,2.07c-7.61-.58-13.69-9.39-16.69-19.18-1.39-4.54-7.72-9.11-10.94-12.48-2.03,2.22-4.32,3.63-5.38,3.12-.82-.4-1.94-2.41-2.82-3.21,3.91-.81,5.75-3.8,8.67-6.43,1.75-.91,5.1-1.03,6.48-1.76Z"/>
      <path class="cls-100" d="M1361.98,483.73l-4.99-3.17c1.98-4.27.63-7.89-2.25-9.66,1.57-1.23,4.23-3.19,6.19-3.69,3.81-.96,7.23-1.99,10.75-5.65,9.12,5.53-5.88,12.87.85,20.06-4.24.26-5.4-.25-7.64-.92-1.34-.4-3.25.44-2.91,3.03Z"/>
      <path class="cls-79" d="M1324.11,479.46c1.93,1.15,3.06.54,5.47,1.14-2.43,1.73-6.61,3.98-6.53,8.13,1.31,1.24,6.25,2.15,6.55,5.33-1.54.6-2.63,3.56-6.25,1.46-2.7-1.56-5.58-1.78-10.53-2.9l11.3-13.15Z"/>
      <path class="cls-68" d="M1296.29,450.76l-7.48-2.5c-.9-2.62-1.24-9.74,2.09-8.58,5.82,2.04,3.98,8.68,5.4,11.08Z"/>
      <path class="cls-34" d="M1514.64,204.44c.56,1.74,1.47,3.16,2.63,4.93,1.24,1.89-2.1,3.26-3.01,4.48l-3.35-2.53c-1.58-1.22-2.27-4.05-1.48-6.19.85-2.31,3.15-2.24,5.22-.69Z"/>
      <path class="cls-90" d="M1512.72,527.74c6.01-1.62,8.24.72,6.09,6.56,10.87-4.17,8.75,10.43,4.95,15.99-2.37,1.46-5.43,6.49-3.95,8.79,6.34,2.98,8.72,7.53,9.34,13.21.82,3.01-.18,5.47-2.99,7.37-2.93,6.01-.38,9.52,7.66,10.56.94-.11,1.45.55,1.4,1.14-.07.75-.69,2.51-1.52,3.15l-10.72,8.28-8.43,4.8-2.66-3.66c-3.06,1.26-5.78-1.03-8.14-6.89-3.88-1.15-3.51-2.73.59-3.18,2.24-4.93,1.19-10.07-3.15-15.43l1.29-2.36c-4.6.91-5.45-.67-2.54-4.73-1-4.56-1.26-9.5-.77-14.83-9.82-4.51-8.32-7.46-4.02-15.16-3.87-.97-1.5-4.99.52-7.92,4.27-6.19,12.08-13.99,17.07-5.7Z"/>
      <path class="cls-27" d="M1567.66,535.94c-1.08,2.03-4.24,3.12-6.02,3.76-1.99,3.04-4.92,2.58-8.77-1.38l-4.22,8.1c4.86,5.06,2.4,15.78-4.79,16.57.18.84,1.76,2.06,2.4,2.5,1.54,1.07-.43,3.59-1.41,3.01-5.74-3.41-8.73-8.13-5.99-12.95-5.2.71-7.94.72-11.76,3.82.14-5.22-1.09-7.09-3.37-9.07-1.06-.92-1.63-4.03-2.11-5.73-.54-1.91,1.11-4.24,3.26-5.51-3.4-1.65-4.49-3.2-6.1-4.76-4.35-8.39,6.72-7.37,11.8-5.55,2.32.83,1.47,4.77.62,2.7-3.42-8.4.76-12.14,9.62-8.8,1.14-5.1,4.66-9.11,10.57-12.02,8.12-17.63,22.84,5.4,13.79,16.2-1.6,3.35-.78,6.39,2.46,9.12Z"/>
      <path class="cls-59" d="M1561.65,539.69c2.88,1.52,6.08.56,10.75,1.79-4.36,6.54-4.21,10.55-4.48,15.44l-.6,10.93c-.26,4.71-3.56,8.01-7.66,7.33-9.46-5.68-8.05-13.09-15.78-12.22-.99-4.65,6.99-8.22.89-15.88.24-4.7,3.98-10.46,6.45-13.55,5.65.72,7.4,4.55,10.43,6.14Z"/>
      <path class="cls-94" d="M1533.81,590.22c-3.15-.29-6.14,1.27-7.7,3.99-4.6-4.56-3.85-8.53-4.16-14.14-.17-2.95,3.38-6.06,7.2-7.78.32,2.95,2.41,6.47,3.38,11.19l-7.65,1.66c3.67.86,7.39,1.68,8.93,5.07Z"/>
      <path class="cls-90" d="M1503.45,601.66c4.1-.61,6.85,2.31,6.82,6.28l-15.21,6.03c-2.61-.56-6.91-3.45-9.9-1.13l.48-1.14c-6.7.58,2.12-14.12,3.19-14.58,1.6-.69,3.5.67,4.9,2.03,1.25-7.7,5.77-3.09,9.72,2.5Z"/>
      <path class="cls-16" d="M1514.53,607.59c-.95.63-2.72-.52-2.8-3.24-.95.51-1.95,1.81-1.46,3.58-2.11-.23-4.32-.53-5.71-2.39-.68-.92-1.09-2.51-1.11-3.89-5.68-1.64-5.53-3.9.28-4.61,6.18,1.42,12.77,6.37,12.79,6.59.09.99-1.5,2.83-2,3.96Z"/>
      <g>
        <path class="cls-19" d="M1503.68,421.25c3.03.03,6.98-3.56,8.84,2.76-2.91-.81-6.43-1.76-8.16,3.17,5.96-.96,9.53,1,9.42,4.91-4.76-1.89-8.77-.37-10.28,2.01-.86,1.36-1.9,3.76,1.23,6.15,4.34-1.68,9.8-2.18,12.03,2.1,1.46,2.79,2.55,7.42-3.1,10.59,11.1,5.57,12.13-1.42,14.69,1.4,1.01,1.11,6.9,2.44,1.32,5.62-2.36-.74,2.97,2.91,4.69,2.85,4.1-.13,1.22-8.61,4.37-10.55,3.03-1.87,7.22,7.23,9.44,2.8-.24-1.64,1.9-4.13,2.53-3.57l3.26,2.92c-.17-3.5-5.15-5.47-2.17-10.19,2.53.74,5.4,4.62,7.15,4.1s2.84-2.73,6.07-4.14c-1.21,3.5-2.17,5.9-.72,7.57,1.6,1.83,1.71,4.05,4.48,5.93,0-4.57,1.94-6.83,3.99-7.04.71,2.17-1.1,7.37,3.75,7.4-1.46,3.13-2.96,5.36-.22,9.06-2.43,1.21-5.48,2.61-6.3,4.41-1.07,2.38.28,6.36,3.83,9.46-5.93-.14-10.14-4.45-12.36-10.18-1.59,3.2-2.25,4.99-3.29,5.89-1.25,1.08-3.44.92-4.77.43l-1.35,1.63c.11.31.09.69.04,1.08,10.23,7.65-6.49,25.34-8.29,8.34.4-6.02-7.36-3.72-7.71,2.7-8.32,4.1-16.13,9.47-10.05,17.36-8.8,13.6-16.99-1.64-14.92-12.48l-3.09-2.78c-2.58.92-3.89-3.25-1.74-4.83-5.23-2.36-7.49-7.63-3.59-12.9-4.86-6.43-10.56-11.06-17.09-13.89-2.65-2.44-6.07-4.59-10.25-6.47l1.04-5.18c-4.07-3.88-6.41-9.66-7.03-17.33-12.77-4.05-8.25-18.02-1.53-11,.14.15-2.47.41,1.44-2.24-4.87-2.36-1.71-5.3,2.59-2.3,4.38-.36,9.03.83,13.95,3.58,8.32,7.94,12.85,8.99,13.59,3.15l4.27-2.32Z"/>
        <path class="cls-19" d="M1543.8,488.18c.43,3.64,3.01,6.27,7.72,7.89l.69,4.65c.83,6.15-2.09,7.48-5.89,2.62-9.25,3.99-17.96-13.89-6.97-18.45,3.43-1.42,7.05-.52,4.45,3.28Z"/>
        <path class="cls-87" d="M1492.03,411.28c1.08.53,3.02,1.72,3.94,2.44,1.1,2.83,3.58,7.49,7.71,7.53l-.44,9.66c-5.2.58-9.46.45-13.97-.35-.4-9.04-15.16-6.17-17.4-13.73-8.67-2.65-17.52-5.03-26.56-7.14-1.97-6.55,2.7-11.37,9.14-8.52-.47-2.1.05-2.21,1.5-.47l12.13-1.29c7.55,5.22,15.53,9.17,23.94,11.86Z"/>
      </g>
      <path class="cls-2" d="M1570.35,504.65c.52,3.71,1.89,8.84.49,12.35-.91,2.29-.83,4.15,1.76,7.29-2.09,1.03-4.75,2.89-5.45,4.49-.79,1.79,1.48,5.35.51,7.16-2.12.85-5.06-.11-5.97-2.2-.83-1.89-.48-4.66.94-7.95l2.73-6.31c.64-1.49-2.06-3.18-3.59-4.48.86-3.8,1.3-6.95-4.48-8.72-.16,12.99-19.37,10.72-9.3,18.24-4.64,3.15-9.49,3.3-14.84-1.23l3.51,7.63c.68,1.49-3.52,4.86-6.04,4.48-1.67-.25-2.59-4.68-4.31-4.77-2.75-.13-6.79.94-7.51,3.67-2.11-2.05-4.05-4.26-6.09-6.56-6.71-2.98-4.93-11.37,2.37-10.87,2.16-5.53,10.4,4.66,9.93,6.32-.5,1.75-4.69-14.1,8-9.81,3.33-6.92,7.77-10.27,13.31-10.03,1.66-.76,4.23-1.29,5.89-2.62-2.43-3.8-.28-8.32,4.13-9.07,5.76-.98,12.27,9.21,14.01,13Z"/>
      <path class="cls-115" d="M1543.8,488.18c-.93-1.24-2.25-2.12-3.29-2.57-1.82-.79-2.53.82-2.25,1.73-1.31,7.7,2.7,11.19,8.06,16.01-4.07,5.35-10.79,10.49-12.93,20.17l-4.89-9.66-.02,7.83c0,1.78-3.76,5.61-5.43,4.75l-7.96-9.57c-3.62,2.35-5.26,1.2-4.92-3.46-5.87,1.39-5.69-14.83-4.34-18.9.22-.68,1.12-1.14,2.2-1.53,2.96-.66,6.51-3.61,10.17-.04-3.21,2.68-5.87,7.83-4.93,10.77,1.29,4.05,4.61,7.62,10,4.66-1.86-1.46-3.66-2.98-4.02-4.62-.11-.51,2.8-9.34,3.13-9.48,1.41-.61,3.24-.74,4.53-2.16,1.21-1.33-1.49-4-2.54-2.9-.97,1.02-3.7,1.24-4.29-1.43,10.04-4.35,7.94-13.51,14.59-8.18,1.04.83,1.3,2.09-.53,2.16-1.5.06-2.73-.19-4.27,1.25.01.03,2.96,1.93,2.07,2.1-1.36.26-1.61,4.19-.7,3.72,6.37-3.47,11.11-7.33,18.95-6.64-2.62,2.23-3.04,5.76-6.4,5.98Z"/>
      <path class="cls-115" d="M1570.35,504.65c-4.49-1.05-8.03-1.39-12.26-.67,2.69-.95,4.94-4.52,4.49-5.97s-4.07,1.27-5.31-4.37c-1.52,3.57-2.6,5.13-5.05,7.09-5.77-1.7-13.49-6.72-8.41-12.55.09,1.05,1.03,2.3,1.82,3.2.54.61,3.19.99,3.84-.3,1.66-3.27,2.18-7.75,2.63-11.25,7.76-3.77,18.32,4.74,18.56,5.45.48,1.42-1.16,4.81-1.02,6.3.46,4.59,3.67,2.77,5.46,2.66,3.44-.21,5.2-2.28,6.59-6.78,3.36,2.27,2.78,4.34,1.55,5.73-4.95,5.59-11.06,2.61-14.24,6.37-1.24,1.46,1.17,3.69,1.37,5.08Z"/>
      <path class="cls-13" d="M1440.02,412.37c1.83-7.12,23.64,1.12,28.56,4.3.54.35.67,1.32.69,2.47.09,1.06.41,2.12.99,2.54.68.49.29,2.3-.58,2.15-1.39-.24-2.38-.89-3.83-1.92-.67-.47-2.36,1.55-1.26,2.7,3.21,3.35,10.67,2.36,9.56,12.9,3.48-1.71,3.17-4.06,3.83-5.59l5.32,6.52c.77.94,1.55,2.19,1.53,2.84-.03.98-1.54,3.02-2.52,3.14s-2.91-3.61-3.93-3.54c-3.57.24-3.52,5.45-1.99,8.84-4.52,5.25-18.44-3.08-15.59-9.93-4.11-1.33-8.38-2.58-12.83-3.75-.52,3.98-2.07,3.76-2.89-.3-6.48-.73-.5-.89-.55-.58-1.36,7.21-14.79,5.17-18.76.06-.76,1.34-3.17,1.07-7.22-.8-6.68,2.05-13.5-9.76-9.31-15.06-.94-.18-.98-.74-.31-1.6.07-4.1,1.73-4.42,3.35-.66,2.54.35,3.4-.47,2.34-2.63l4.29-3.29c1.53-2.44,3.96-1.92,7.51-.21,1.09-2.33.48-4.85.33-6.38l4.82-1.44c.58,6.68,3.39,9.75,8.43,9.21Z"/>
      <path class="cls-12" d="M1416.76,394.68c-.27,3.27-1.11,6.71-2.52,10.32.16,2.15.31,4.56,1.64,6.45.8,3.35-.4,5.23-3.57,5.64l-3.35.66c-2.48-.77-3.42-3.41-2.82-7.92-5.08-4.65-4.86-8.81.66-12.48.07-2.8-.91-4.61-2.62-1.14-5.27.89-7.65,3.4-7.13,7.53-3.93,2.66-7.85,5.6-11.75,8.82l-5.08-3.26,2.96-25.31,7.49,8.47c2.27-2.23,5.52-7.79,9.75-8.04,6.83-.41,12.81,5.81,16.36,10.28Z"/>
      <path class="cls-122" d="M1441.94,390.89c1.38-.52,3.71,1.87,3.93,3.27,4.49,4.48,4.58,7.67.25,9.57l-.56,2.85c-5.02.71-6.86,2.64-5.53,5.78-1.4,1.14-4.8,3.94-6.55.96-2.03-3.47-3.68-6.92-6.71-8.74.18-.49.12-1.33-.98-1.54,2.98-2.39,5.04-5.33,6.2-8.81.77-5.11,5.13-.09,9.95-3.34Z"/>
      <path class="cls-95" d="M1412.3,417.09c-1.05-.93-1.23-2.8-.16-3.52,1.21-.8,2.47-1.45,3.73-2.12.71-.38,2.23-.34,3.06-.28-1.74,3.1-2.24,5.41.86,7.99,2.01,1.67,2.4,4.61,7.6,5.09-1.72,1.25-4.13,2.5-5.54,3.04-2.36.9-5.07-5.49-9.55-10.2Z"/>
      <path class="cls-13" d="M1414.23,405c-.84-.26-4.27-2.03-3.23-3.86,1.48-2.6,4.61-4.09,5.75-6.46,2.73,3.44,1.18,8.29-2.52,10.32Z"/>
      <path class="cls-13" d="M1425.79,403.05c-.99-4.49,4.11-6.58,6.2-8.81,2.43,1.63,1.14,3.28.6,4.73-.9,2.43-3.25,5.09-6.8,4.09Z"/>
      <path class="cls-28" d="M1454.45,401.18c-1.38,2.92-6.67.02-7.54,6.26,8.41-2.22,11.57.87,16.5,5.88,2.05,1.2,7.22-.64,8.45,3.52-1.82-.08-2.69,1.07-2.59,2.3-3.28.3-5.91-2.6-9.65-3.26l-19.6-3.51c-2.1-1.81-4.28-2.87-6.71-4.38,2.71-1.21,2.59-3.16,1.84-4.46,4.38,1.32,7.81.19,9.54-1.35,2.25-2.01,1.84-5.93,1.17-8.01l2-.06c3.5.06,7.26,3.13,6.59,7.08Z"/>
      <path class="cls-28" d="M1468.73,397.06l12.66,7.58c3.96,2.37,8.24,1.9,10.64,6.63-2.85-1.23-8.1.47-10.46-.17-4.49-1.21-8.49-10.73-15.66-8.87-1.48.38-4.1,2.74-6.33,2.25-1.42-.31-3.04-1.97-3.62-3.78-7.62-3.97-2.05-7.21,4.16-6.2.29,3.13,6.59,1.35,8.61,2.56Z"/>
      <path class="cls-122" d="M1460.12,394.5c-2.89.66-4.6,3.27-4.16,6.2-.44-.1-1.02-.2-1.5.47-3.44-1.39-5.95-3.36-6.59-7.08-.37-2.93.43-5.92,3.55-7.54-.29,3.4,1.48,7.23,4.17,7.76.18.04,4.12-4.18,4.25-2.86l.28,3.04Z"/>
      <path class="cls-91" d="M1410.87,536.19c-6.15,2.36,4.3,13.77,9.18,15.05,5.35,4.02,7.8,8.38,7.36,13.08l-8.57,2.88c2.26-3.65-2.26-5.56-3.52-1.01l-6.04-10.42c-.96-1.66-1.04-3.62-2.42-4.13-1.34-.5-3.72-.26-4.72-.77-3.76-2.08-5.4-7.89-5.96-12.15-4.41-9.96-10.6-12.4-10.7-16.32-.06-2.36,1.44-4.14,4.31-7.85l-10.71-1.56c-3.13-6.53,5.11-9.74,12.23-7.63,3.13,3.04,5.85,3.75,8.16,2.14-6.02-7.16,2.66-16.2,9.24-10.76,5.8,8.28,7.14,18.59,4,30.95,1.5,3.77.89,6.62-1.84,8.53Z"/>
      <path class="cls-10" d="M1432.72,538.4c8.5,1.45,11.76,4.17,6.27,12.75l3.59,1.64c1.02,4.64,2.38,9.37,4.07,14.21.73.47,2.69,2.07,2.01,3l-2.32,3.18c2.57,3,7.95,5.12,7.99,10.99l-10.56-6.98-16.38-12.86c-10.33-8.11-16.98-19.77-25.28-26.55-1.57-1.2-3.28-5.83-3.05-8.49,5.48,2.67,7.96,5.77,11.79,6.91,5.06-.66,6.14,1.77,3.34,6.04,4.01,1.63,5.34,2.87,3.98,3.7,3.55.87,5.82-1.69,6.83-7.67-5.68-3.88-2.34-10.64,4.54-10.08,4.38-2.31,6.19-1.36,2.56,2.05,1.47,3.32,1.67,6.05.59,8.17Z"/>
      <path class="cls-103" d="M1411.51,479.96c4.15.92,3.61,4.35-.65,4.47-1.89,2.46-2.78,5.04-2.67,7.73,4.82.14,5.05,2.87.53,4.55l-8.31,4.81c2.19,3.16,6.39,7.95,4.64,12.49.25,5.02-6.25,3.11-3.1-.67.14-3.96-4.31-2.08-3.54-.03.32.86,2.36,2.9-.93,4.96-3.52-9.32-13.35-12.77-16.66-9.04-.96,1.08-1.33,2.78-1.74,3.73-1.32.77-4.38-1.12-4.22-2.96.06-.65,4.42-5.08,9.17-8.04,1.23-.51-.99-3.84-2.89-3.54-1.89.88-2.38.34-1.5-1.59,7.89-7.89,8.84-22.02,20.48-29.09,3.11-5.6,3.28-10.47.51-14.62,3.39-12.23,12.46-5.45,16.87,3.46,4.27,8.64-8.92,25.07-12.08,24.59-.42-.06,5.32-6.29,6.09-1.21Z"/>
      <path class="cls-132" d="M1398.47,427.69c4,1.18,7.25,4.71,9.75,10.59l15.64,17.19c2.49,3.46,1.91,5.69-2.11,7.53,7.49,4.39-2.87,18.11-10.25,16.96-2.43.34-3.91,2.32-7.94,1.78l12.87-18.41c2.41-3.45-2.62-9.59-5.83-13.82-1.21-2.5-4.52.38-5.69,2.11-1.03,1.52,1.4,5,1.81,7.05.84,4.16-3.95,7.46-6.6,9.07-.65-4.02-1.15-7.53-.81-13.31-3.77,1.77-7.09,2.59-10.78,2.03,3.45-3.98,7.13-7.42,14.17-7.83-5.16-10.03-12.81-14.49-19.92-22.42,3.42-.72,4.99,2.91,5.91,4.89,2.1-4.45,1.87-5.68,2.78-7.43,4.25-3.5,7.16-.78,7,4.02Z"/>
      <path class="cls-116" d="M1379.64,496.83c.04.17.88,1.29,1.5,1.59-2.01,2.31-5.72,6.36-8.3,5.88-1.3-4.08.22-7.71,1.37-8.95,1.04-1.13,3.88-.59,5.43,1.48Z"/>
      <path class="cls-31" d="M1404.18,396.2c1.69,1.19,1.43,4.27-.8,9.25,3.29,3.3,5.05,10.17.69,11.97,2.82,2.23-4.77,3.22-4.43,3.1,15.18-5.12,9.22,18.11-1.17,7.17-2.36-1.05-5.39-2.02-7-4.02l-10.17-12.7c-.17-.68-.4-1.18-1.09-1.67,3.82-.24,7.74-1.54,8.7-5.94,9.78-1.4,7.24-14.48,15.27-7.15Z"/>
      <path class="cls-52" d="M1515.09,516.87c-3.41,3.45-1.71,7.56-2.37,10.87-.55.48-1.62,1.02-2.33.99-.92-.04-2.61-.94-3.04-3.66-.92,4.87-7.27,7.99-10,12.81-1.38,2.44,1.47,9-5.32,9.98,5.1,3.42,8.86,3.45,10.85,5.6.22.23,2.6,15.6-2.95,17.89l-10.94-9.3c3.35-3.3-.51-5.11-.55-6.43-.05-1.47,3.92-3.41,4.25-3.98-1.08-1.61-2.36-3.3-2.33-4.3.06-1.77,1.35-3.3,3.32-6.53-2.42.87-5.59.38-6-1.73,3.62-1.63,2.9-5.42,3.83-6.77-2.87-2.55-1.71-5.79,3.48-9.73-3.24-10.78,13.72-11.23,12.61-8.44-.41,1.01-2.96.17,2.57-.71,3.19-.67,3.9,2.23,4.92,3.46Z"/>
      <g>
        <path class="cls-16" d="M1479.37,513.53c6.5-.31,6.91.45,3.33,6,6.96-2.3,8.58,7.46,8.82,12.77.95.2,1.83.48,2.53,1.02,1.34,1.03,1.11,12.05-2.55,15.01,3.37,2.04,4.53,6.49,3.48,13.35,4.95,2.75,6.61,5.98,4.95,9.68,1.98,1.68,2.27,2.27,2.54,4.73-.2,4.15-1.75,4.65-4.65,1.52,2.59,9.82-1.1,10.71-10.66,7.52-.86.44-1.72,1.22-2.3,1.91,7.06-4.79,14.48,6.01,8.89,12.12-1.53.42-3.47,1.63-3.66,2.96-.26,1.81.64,4.32,1.7,6.84-2.21-.17-3.66-1.58-4.6-1.24-1.12.41-1.81,3.26-1.53,3.98l-9.54,1.49c.26-1.8-.16-3.71-.99-3.71-1.2,0-4.73,1.36-5.84.41l-4.86-4.18c-2-1.72-5.06-.14-7.13,1.06-.04-12.62-9.99-12.41-16.52-18.76.93-5.86,6.03-5.92,15.29-.18l5.71-.54c5.35,3.32,7.42,3.59,6.19.83-7.35-2.45-14.48-6.78-7.71-14.41-3.15-12.17-1.23-20.34,5.76-24.51.92-4.75,1.32-9.84,1.2-15.28-7.46,4.2-10.44-8.16-7.87-13.49.78-1.61,11.44-2.46,14.58-2.37-3.94-8.5,4.71-13.97,5.43-4.53Z"/>
        <path class="cls-29" d="M1456.78,526.17l2.29.05c-.31,5.75,2.41,8.32,8.14,7.71l8.1,5.76c-3.53.53-4.86.4-6.78,1.38,5.45,2.98,2.21,6,1.38,9.19-.98,3.73-4.26,3.22-7.06,5.26.62,3.09,1.97,6.86,4.6,3.42.73-1.45,2.01-1.37,2.39-1.78.58-.61-.83-3.44,2.4-4.81,1.78,4.4-.14,9.28-.17,14.33-2.48-1.65-3.73-2.64-4.71-3.45-1.85-1.5-4.22-.31-4.11.92.46,5.1.66,8.88,3.86,12.78-2,1.1-3.07.05-3.65-.07-1.59-.33-2.29.99-2.21,1.91.41,4.36,7.07,3.29,10.18,7.2,1.17,1.47.92,3.96.43,7.03,5.98-1,8.75-.52,11.64,2.47l-8.7,4.77c-5.81-3.2-9.82-7.88-16.74-9.78,1.98,2.14,5.34,4.21,2.5,7.41-6.13-6.73-12.34-12.15-19.8-9.84-2.13-2.07-4.76-3.64-5.01-7.08,3.39-.09,5.34-2.33,8.04-3.76.82-.99,1.51-1.73,1.75-1.61,18.08,9.46.53,4.84-2.09-1.67.38-3.17,1.45-5.47,3.21-6.91-3.52-5.09-5.35-13.99,2.58-14.97-.94-3.35-.61-6.4.99-9.16-2.97-4.78-3.59-8.94-1.19-14.18s4.99-9.28,7.75-2.52Z"/>
        <path class="cls-86" d="M1497.81,577.6c5.17-.04,11.15,12.21,6.51,16.27l-.59,3.18c-.28,1.51-.74,3.13-.28,4.61-2.87,2.28-1.51,3.43-1.98,4.77-.86,2.46-6.08,1.64-5.09-1.27.53-1.56,1.64-3.58,1.09-5.14-.35-1-2.46-1.53-3.74-.86-1.61-5.07-3.88-9.98-8.89-12.12-.26-.11-.43-.37-.48-.7-1,.8-2.38,1.05-3.26.67-2.01-.88-2.59-2.25-1.48-4.76,1.01-2.27.61-5.25,3.12-6.98.97,4.24,1.33,6.99,3.04,9.32l1.36.54c1.45.13,2.15-2.05.28-4.42,2.35-1.28,5.3,1.24,7.48,3.47,1.25-3.35,1.75-4.97,2.9-6.56Z"/>
      </g>
      <path class="cls-51" d="M1502.46,576.08l7.11,11c-.39,1.88-1.59,4.35-1.56,6.08.04,2.08-2.21,2.55-3.69.71-1.8-5.46-2.93-11.42-6.51-16.27,1.06-1.47,2.69-1.95,4.65-1.52Z"/>
      <path class="cls-115" d="M1506.29,488.15l-.7,9.76c2.13,4.62.38,8.25-5.26,10.88-2.52,9.76-7.98,14.27-17.63,10.75-.68-2.19-1.83-4.22-3.33-6l.25-2.99c-9.6-1.64-14.27-8.03-12.29-16.86-5.65,3.58-8.57-3.04-1.1-3.82.92-3.13,1.55-6.47,1.89-10.03l-11.64-8.57c-7-3.01-2.33-9.71,5.36-6.01l4.25-2.1c7.31,5.89,14.85,10.86,22.62,14.91l2.74-1.21.16-3.96c-2.95-1.2-4.06-3.49-3.33-6.88-2.85-1.42-3.74-2.97-2.68-4.67,2.9-3.18,6.52.08,9.33,2.34l17.52,14.04-9.39,1.59c3.75,3.53,4.5,6.1,3.21,8.82Z"/>
      <path class="cls-102" d="M1447.99,436.03c5.11,1.38,9.39,2.62,12.83,3.75,3.79,4.02,11.05,7.67,15.59,9.93,3.51,5.15,9.15,5.72,9.2,11.65l12.5,13.68-6.65,1.82c-4.41,3.16-12-1.86-9.67-8.35l-3.19-3.86c-5.33-.28-9.98-1.96-13.96-5.03-.96-3.39-3.01-5.16-6.16-5.29,2.12,5.1-1.49,6.1-10.83,2.99,1.34,5.22-2.5,3.45-6.19,1.42-7.81,1.64-9.41-9.7-1.66-13.51-.48-4.89-.42-9.34,5.29-9.49l2.89.3Z"/>
      <path class="cls-58" d="M1506.29,488.15l1.74,4.83c-1.87,4.89-.64,8.77,3.53,12.16-1.39,2.34-2.4,5.83-1.39,8.27-1.03,1.2.53,2.69-.21,3.08-1.04.56-3.99.18-5.49-.3.75,2.87,1.11,6.41-2.63,7.74,1.75-3.45,1.83-5.49-.56-6.93-1.45-.87-3.31.64-2.83,1.57,3.43,6.63-3.99,9.47-6.92,13.72-6.71-2-4.17-7.73-8.82-12.77,2.84-2.71,6.5-3.93,11.61-3.77.24-7.06,2.62-11.77,9.38-13.81l.62-9.94c.06-.93-3.57-2.33-1.07-3.92.77-.49,2.39-.07,3.04.06Z"/>
      <path class="cls-12" d="M1409.27,419.34c2.22,5.12,6.37,10.44,9.31,15.06,1.46-.69,3.68-1.59,4.49-.7,2.65,2.92,19.67,30.71,19.03,32.51-.34.95-.94,1.8-1.62,2.63-.53,11.52-16.27,4.01-18.72-5.84,1.14-9.69-19.49-17.36-23.28-35.31,1.37-.76,2.98-1.14,5.34-.93,1.81-1.34,2.86-4.97,1.34-5.34-2.62-.64-4.5-.33-7.31-.47,1.95-2.24,4.26-2.35,6.23-3.53,2.8-3.47,3.86-1.66,5.19,1.92Z"/>
      <path class="cls-136" d="M1445.1,435.73c-.52,3.8-2.58,7.36-.28,11.34-2.03,1.31-5.72,2.89-6.3,5.38s1.03,4.29,2.95,6.28c4.11,1.65,8.36,3.43,12.75,5.33-.1,2.55-.33,5.28-.71,8.18,14.62,16.63-.75,18.74-9.71,3.53-5.69-.27-6.97-2.43-3.32-6.94l-21.9-34.43c2.76-1.71,4.97-3.24,8.23-4.11,4.62,6.48,12.33,6.87,18.21,2.37.49,1.25.29,2.3.09,3.07Z"/>
      <path class="cls-93" d="M1408.96,417.75l.31,1.6c-1.48-.27-4-.6-5.19-1.92-.97-3.46,1.65-5.57.38-7.36-2.55-3.58-4.28-2.94-8.56-8.03,3.33-1.17,7.86-2.7,8.29-5.83.31-2.31-2.78-4.27-3.88-5.47,3.29-3.79,7.65,1.26,9.05,3.92,1.86,3.53-1.44,6.32-4.98,8.16,4.16,4.83,3.9,9.95,4.59,14.94Z"/>
      <path class="cls-136" d="M1460.82,439.78c-.18,5.41-3.81-1.76-10.71-.56-1.42.25-2.7-1.3-2.12-3.18,4.69-2.86,9.32.04,12.83,3.75Z"/>
      <path class="cls-58" d="M1479.37,513.53c-.29-.56-.55-1.91-2.39-2.3l-2.82,12.49c-.89-2.28-3.82-6.25-6.31-5.56-2.18.61-4.91,4.11-6.83,7.25,1.24,3.17,3.53,6.61,6.2,8.5-1.63,2.72-4.56,3.54-7.45,3.62-1.7.04-5.08-3.13-4.11-4.53,2.05-2.95,2.18-4.35,1.12-6.84-4.63,1.14-5.71-.54-3.25-5.04-5.11-2.57-.62-9.67,4.44-5.95,1.54-2.82,13.2,1.02,12.53,1.19-5.93,1.48-10.67-4.86-10.85-10.53-7.69-2.01-8.5-10.57-.51-9.54,2.64-7.48,7.35-.76,6.59-.46-4.55,1.77-4.26-2.18,1.59-2.17,2.34,1.08,2.45,5.86,4.7,8.11,3.38,3.39,9.1,5.54,10.44,10.99-.44.79-2.45,1.13-3.1.75Z"/>
      <path class="cls-55" d="M1447.66,457.31c7.63-.08,12.3,2.05,14.01,6.41,1.93-.28,1.91.27.18,1.53-2.92.57-6.49,2.56-5.36,6.01,11.51,5.43,14.76,11.63,9.75,18.6-.29.37-.83,1.04-.78,1.5.09.81,1.14,1.97,1.89,2.32l-1.21,5.07c-2.4-1.61-4.54-2.28-6.97-2.44l-4.59-.16c-1.93-8.63-10.86-14.88-15.01-12.38-4.65,6.29-5.57,16.22,4.35,14.05,2.27-6.59,7.44-3.37,4.32,2.49,5.18-.71,13.94,10.61,9.75,14.87-4.01,2.25-2.78,7.24-1.2,10.98-1.57.05-3.84-.06-4.86.59-4.84,3.07,1.92,11.46-1.69,16.11-4.71,3.36-8.48-.23-7.75-5.8-1.8-4.18.44-6.07,3.92-3.07-.86-4.98-2.38-6.64-4.56-5,3.17,3.54.5,5.92-4.03,4.16l-2.22,3.14c1.77,3.67.39,4.62-2.87,2.11-.48-3-.84-8.24-3.15-10.22-6.41,5.26-8.46.26-6.15-14.99,1.64-8.59,1.85-17.14.63-25.66l3.27-3.9c-4.15-10.46,1.34-13.07,16.48-7.85,6.14-3.85,4.37,6.85,10.04,7.21,1.76.11,3.16.55,2.64-2.21-.78-4.17-5.9-4.86-6.28-8.6-.18-1.82.52-4,1.54-6.44-5.07-1.3-7.53-4.15-10.28-7.01l6.19-1.42Z"/>
      <path class="cls-137" d="M1442.48,537.06c2.68,1.25,5.73,3.48,7.75,5.8,2.39,2.74,3.15,5.64,3.06,8.87-.12,4.21-3.62,4.32-6.73,5.19.13,3.85,1.4,7.46.1,10.07-6.76-.11-3.97-12.6-8.74-12.18-.96.08-3.21,1.9-4.07,1.47-2.53-1.28-4.84-4.86-6.95-7.9,5.8,1.31,8.3,1.36,12.64-3.22-3.4-.81-6.24-3.11-6.83-6.77l2.87-2.11c-1.55-5.96,10.84-5.68,6.89.77Z"/>
      <path class="cls-71" d="M1427.32,483.62c4.94,16.09-2.01,29.24.97,36,.55,1.24-3.08,4.02-2.89,5.25.23,1.44,3.22,2.5,4.17,3.31-2.34,2.79-3.44,6.54-4.54,10.08,1.91,8.75-5.89,10.56-10.81,3.97-1.3-1.99-3.43-2.86-3.34-6.04.06-2.11-2.03-4.92-4.31-6.99,3.45-3.07,3.17-6.29,3.08-11.12l-.2-10.42c-.09-4.39-2.86-7.53-.72-10.95,2.11-2.98,3.29-6.4,3.52-10.25,5-10.75,15.52-16.07,15.09-2.84Z"/>
      <path class="cls-97" d="M1414.21,542.24c3.08-1.11,4.37,2.43,5.77,1.69,2.24-1.19,4.57-4.13,5.04-5.66.98,2.93,1.51,5.92,3.84,7.7-5.09,2.57-7.54,2.89-10.68,2.43-3.29-.48-2.85-4.44-3.97-6.16Z"/>
      <path class="cls-49" d="M1440.48,468.84c1.17,1.85,2.83,4.4,3.32,6.94-.37,1.14-1.18,2.46-2.06,2.84-4.22,1.77-9.53-4.62-12.4-1.69.33,2.26.93,4.03.55,5.15-.35,1.06-1.83,1.72-2.57,1.55-1.12-3.64-2.18-2.8-4.64-3.19-4.37-.69-5.5,1.68-6.46,4.99-.44,1.52-1.89,1.52-2.43,1.84-.98.57,3.7,5.75.81,10.15-.82,1.24-4.59-1.44-5.88-.69l-.53-4.55c-4.25-3.48-2.55-6.84,2.67-7.73l.65-4.47c3.62-4.32,9.54-10.9,10.25-16.96,2.92-2.24,7.97-2.02,8.33.85-3.55,3.18.1,5.36,1.76,6.31,2.55,1.45,5.57-.03,8.63-1.32Z"/>
      <path class="cls-91" d="M1410.86,484.43c-.4,2.76-.78,5.51-2.67,7.73-2.19-2.25-5.57-3.36-8.43-5.3,4.37-4.01,7.83-1.37,11.1-2.43Z"/>
      <path class="cls-20" d="M1491.46,476.85c.06,3.05.04,5.2-3.8,7.57-.02-6.57-5.33-4.69-7.28-6.07l-18.54-13.11c.15-.63-.02-1.14-.18-1.53-4.47-1.23-5.18-5.64-3.18-9.4,5.61-8.02,7.1,9.44,23.57,4.89-.61,4.75,1.52,6.25,5.2,7.13,1.27,1.61-1.41,5.93-3.98,6.3,4,1.42,6.17,2.35,8.19,4.22Z"/>
      <path class="cls-32" d="M1466.23,489.86c.15-9.64-7.76-12.48-9.75-18.6,4,1.5,10.03,1.65,13.96,4.97,4.36,3.69,1.14,13.12-4.21,13.63Z"/>
      <path class="cls-120" d="M1458.48,454.32c3.05,2.34,4.49,5.75,3.18,9.4l-11.46-3.05c-2.14-.56-2.97-2.07-2.54-3.36.75-1.29.08-3.5,1.73-4.84l4.72,3.46c1.12.82,3.38-.2,4.38-1.62Z"/>
      <path class="cls-135" d="M1459.15,496.31c-.98,1-2.77,3.71-.92,5.09.83.62,3.97-.61,4.78.42,1.67,2.13.06,5.94,1.25,7.08,1.89,1.82,4.61,1.89,6.48,2.98-5.73.22-3.71,5.12.38,2.57,4.75.59,1,6.01-1.7,2.37-5.42,3.85-8.99,1.75-11.44-1.63-3.52-4.87-8.04-9.01-9.75-14.87-.52-5.69-3.36-10.38-8.53-14.08-3.82.7-3.68-.65-.15-2.46,1.12-.38,2.06-3.14,3.22-3.35.31-.06,13.71,7.71,16.37,15.89Z"/>
      <path class="cls-119" d="M1448.22,500.31c-.49-1.68-2.66-3.04-4.32-2.49-6.48,6.74-12.87-13.74-4.21-11.59.71-.52,2.14-2.52,3.11-2.62-2.12.21,8.22,6.03,8.42,9.59.16,2.89.43,6.08-3,7.11Z"/>
      <path class="cls-131" d="M1439.55,483.77l.15,2.46c-1.34.3-2.1,1.81-1.64,2.58l2.37,3.92.63,3.8c.19,1.16,1.85,1.63,2.85,1.3-.99,2.86-4.4,5.05-6.55,4.1-6.91-3.08-2.11-11.2-7.35-14.95l9.55-3.2Z"/>
      <path class="cls-29" d="M1446.4,533.99c-2.93,1.89-6.55-1.98-4.56-5,1.17-3.77,1.92-10.37,10.61-8.65-3.86,4.94-5.38,8.96-6.05,13.65Z"/>
      <path class="cls-10" d="M1441.84,528.99c1.83,1.3,2.87,3.19,4.56,5-1.85.92-2.85,2.07-3.92,3.07-.53-.72-.95-2.57-2.23-2.77-1.98-.32-3.35,1.02-4.66,2-1.1-1.76-2.63-3.15-2.49-6.55,2.56.64,3.84,1.69,5.34,1.75,1.24.05,2.83-1.27,3.4-2.5Z"/>
    </g>
    <g>
      <path class="cls-80" d="M1620.29,302.49c3.6-.3,7.7,1.18,12.3,4.44,2.43,5.48,5.23,5.89,8.39,1.21,8.26,2.04,16.49,3.14,24.71,3.31,14.79-11.8,21.53,21.99,5.11,25.14-9.6-3.92-6.38,13.8,1.49,3.32,5.65-2.72,11.32-5.13,17.01-7.24l-.51-4.35c4.11-1.54,7.06-3.74,8.86-6.6,5.67-3.47,11.22-4.73,16.65-3.79,3.44-3.81,7-7.57,12.46-6.72,6.85-5.73,10.61,5.73,6.33,12.08,1.55,3.09,2.41,6.41,2.58,9.97,8.14-1.92,11.73.19,10.79,6.33.78,8.34-.08,16.95-2.59,25.85-1.29,8.59-2.2,16.9-2.75,24.94-.41,1.89-1.73,4.09-1.53,6.14-1.66,8.66-5.03,16.7-8.51,24.76.11,1.06,1.24,2.94.83,4.17-3.7,4.98-6.8,6.94-9.28,5.89-9.01-6.51-11.42-13.08-7.23-19.71.99-12.06-6.82-16.47-12.3-4.17l-11.58,3.35c5.23,7.82,9.1,21.6-.17,27.35-14.03-5.29-18.11,5.88-21.69,19.2,7.69,9.36,1.1,13.69-8.92,16.53,4.81,3.37,3.82,7.3,1.39,12,5.11,7.34,9.79,17.29-2.87,18,13.67,4.05,8.64,22.04-3.09,12.95-4.13.37-7.26,4.07-9.41,11.1l-4.9-.9c8.56,11.71-.03,15.72-12.05,12.57-3.73-9.17-19.36-.65-18.95,7.05-1.28,7.55-4.93,11.04-10.95,10.47,1.62,3.65,1.8,5.74-1.59,3.84-2.57,3.3-4.99,4.24-7.27,2.82-1.12,2.91-4.27,4.44-9.45,4.58-12.09,11.18-14.28-5.06-6.64-13.66-1.23-5.26.03-7.3,3.78-6.13-1.03-6.1.2-10.25,3.7-12.44,1.93-7.16,2.17-13.68.71-19.56,6.15-6.33,8.06-11.47,5.72-15.42-1.75-5.65-1.98-10.52-.69-14.63.67-4.03,2.41-7.83,5.22-11.4,7.26-4.35,8.59-6.66,3.99-6.94-8.37,4.03-19.72,2.06-11.73-6.96-5.91.2-5.65-2.67-.1-4.79.62-3.43-.38-7.02-3-10.79-.12-5.46.31-10.58,1.27-15.37,1.75-7.97.28-10.49-4.42-7.53-5.08-1.89-5.96-5.97-2.65-12.23-7.87-1.8-8.53-10.95-5.94-17.43-7.6-2.6-2.22-7.24,4-9.36-4.81-6.24-2.86-9.2,3.67-12.13-8.28-4.16-11.96-12.59-1.65-16.58,1.98-2.49,2.47-6.08,1.47-10.76,8.83-9.61,8.8-16.06-.09-19.35.96-4.52,3.09-8.54,6.39-12.06,3.84-7.49,7.87,5.34,7.4,4.76-5.62-6.88-8.75-14.26,3.89-13.16,6.45-2.07,18.97-5.63,24.4-1.95Z"/>
      <g>
        <path class="cls-23" d="M1641.86,527.03c1.6,1.64,2.7,3.58,4.24,5.52,1.35,1.7,4.23,1.15,6.31.03-1.98,4.96-5.97,8.89-10.78,11.78l-15-1.44c2.34,2.34,6.32,1.54,7.94,6.54-11.26-1.33-16.73,2.14-16.72,2.15l-4.34-3.64c-1.61,5.01-4.95,8.24-10.51,10.84-1.45,1.24-3.54.94-3.08-1.71.03-1.83-.11-3.62,1.02-6.34,1.35,1.89,2.14,3.77,5.25,5.04l.91-16.65,19.73-10.69c2.25,4.3,4.45,8.23,7.59,8.8,3.44.63,6.18-.95,7.62-2.23,2.17-1.93.02-6.22-.17-8.01Z"/>
        <path class="cls-35" d="M1731.09,421.27c-.51-4.85,4.46-17.95,8.51-24.76.94,9.21-2.41,18.18-8.51,24.76Z"/>
        <path class="cls-62" d="M1697.65,321.72c1.15,2.27,2.21,3.54,5.47,6.42-4.42,2.27-6.93,1.39-12.42,1.53,3.17,3.6,7.7,3.62,6.16,6.55-.86,1.64-4.13,1.68-5.42,1.2-5.23-1.94-6.06.5-9.55,3.08-3.12,2.31-10.72,1.58-11.23,8.76,1.43,4.18-4.74,5.05-4.3.42-.67-2.75-2.96-2.56-3.91-2.93-1.18-.46-2.23-11.24.22-13.52,2.61-2.42,7.02-1.37,9.29.73l-3.13-8.46c4.64,3.63,7.43,5.88,7.37,3.32-.38-15.89-4.74-22.95-7.73-12.39-.47,1.65-5.26-.39-6.85-3.71l-2.17,7.69c-2.49-5.11-7.76-6.74-13.62-6.99-.8-.82-2.68-2.5-3.39-2.05-.96.61-1.38,2.21-1.15,3.06.58,2.13,7.62,8.05,9.48,5.82l2.28-2.73c.38-.45,2.45,1.81,2.68,2.9-.57.78-2.12,1.94-2.53,3.15-.58,1.71.12,3.62.94,7.31-8.68-1.31-10.58-12.4-14.35-14.83-1.55-1-5.97,1.26-7.94.24-1.02-.53.45-4.36-.13-5.33-.66-1.12-4.15-.84-5.44-.85-1.7-2.91-2.81-6.39-6-7.65l4.3-2.89c.93-.62,2.83,2.1,4.19,2.03,2.69-.12,5.14-2.19,7.33-2.14,1.82.04,4.65,4.41,6.58,4.41h29.7c6.18,0,11.03,2.34,16.04,2.86,3.98.41,10.74-.39,12.59,5.1.71,2.11-4.16,3.5-6.47,1.99-1.72,4.6,2,5.74,3.09,7.89Z"/>
        <path class="cls-77" d="M1585.66,461.22c.64,1.5-.28,3.43.01,5.07.24,1.37,4.07-.31,5.11-.66,3.58-1.27,6.3-2.01,8.46-1.34,2.67.83,7.22,4.06,5.26,7.28-1.86,3.04-7.63,4.45-8.91,7.7-1.67,4.26-3.8,6.67-7.41,7.25l-3.4-3.02c-1.15-1.02.54-2.94,1.16-4.21-1.22-8.96-6.37-10.05-6.02-14.37.23-2.81,2.97-3.81,5.74-3.7Z"/>
        <path class="cls-76" d="M1574.96,554.7c2.51,5.21-3.91,9.73-.06,14.09.84.95,3.4-2.47,4.76-2.48,4.17-.04,8.09-.04,11.39-2.53.89.98,1.64,2.09,2.19,3.34l-11.28,3.05c-1.09.3-.96,2.74-.43,3.29-1.16,2.22-3.13,3.98-6.92,2.63l-5.7,5.81c-4.27,2.45-6.6.86-8.45-3.33l-.81-3.38c.77-2.36,1.91-4.62,3.43-6.77-.81-6.46.8-10.29,4.83-11.5.5,2.39,2.53,2.04,2.94.89l1.52-4.29c-.31-4.02,5.14-2.94,2.58,1.17Z"/>
        <path class="cls-77" d="M1583.83,430.26c2.74,3.17,3.84,7.59,2.73,12.36-.96,4.1,4.16,7.33,4.85,9.81,1,3.58-4.48,4.6-5.85,4l-9.05,1.62c-7.4,5.82-7.54-1.42-3.75-7.4,4.99-.5,4.9-2.69,6.14-6.54,2.48-7.69-4.37-12.27,1.26-16.09.88-.6,2.52,2.32,3.67,2.23Z"/>
        <path class="cls-45" d="M1656.64,494.02c-3.2,2.35-5.02,3.98-8.9,5.18l3.03-15.54,5.87,10.36Z"/>
        <path class="cls-45" d="M1647.6,479.85c-2.67,4.11-6.12-.31-7.12-2.04-.88-1.52.91-5.88,2.87-5.61,2.87.39,5.08,6.04,4.25,7.66Z"/>
      </g>
    </g>
  </g>
</svg>